<?xml version="1.0" encoding="UTF-8" standalone="no"?>
<!-- Created with Inkscape (http://www.inkscape.org/) -->
<svg id="svg2" xmlns:rdf="http://www.w3.org/1999/02/22-rdf-syntax-ns#" xmlns="http://www.w3.org/2000/svg" height="1024.5" width="1565" version="1.1" xmlns:cc="http://creativecommons.org/ns#" xmlns:dc="http://purl.org/dc/elements/1.1/">
 <metadata id="metadata7">
  <rdf:RDF>
   <cc:Work rdf:about="">
    <dc:format>image/svg+xml</dc:format>
    <dc:type rdf:resource="http://purl.org/dc/dcmitype/StillImage"/>
    <dc:title/>
   </cc:Work>
  </rdf:RDF>
 </metadata>
 <g id="layer1" transform="translate(1390.74,-155.83136)">
  <path id="path3159" fill="#f2fbfc" d="m-1390.7,667.83,0-512,782,0,782,0,0,512,0,512-782,0-782,0,0-512z"/>
  <path id="path3151" transform="translate(-1390.7393,155.83136)" fill="#edf9f9" d="m1564,435.96,0.071-66.312c-1.2375,0.30284-11.416-0.263-21.42-0.14286l-18.188,0.21875-3.8125-3.5625c-2.0966-1.9698-6.2875-5.3262-9.3125-7.4375-7.4821-5.222-11.634-9.1646-15.25-14.5-7.3745-10.881-10.45-10.696-25.656,1.4375-11.746,9.3717-12.946,9.6664-31.594,8.125-7.7347-0.63934-13.058-1.8518-23.5-5.375-12.451-4.2011-14.277-4.5595-23.5-4.5625-8.6092-0.003-11.252,0.4406-19,3.125-12.492,4.3278-15.074,4.6313-23.594,2.875-8.3081-1.7128-10.453-1.4359-22.937,3-7.1688,2.5471-35.414,37.002-38.362,35.817-62.393-33.243-71.874-13.182-91.482-16.882-110.57-20.866,362.55,336.07,367.54,64.177z"/>
  <path id="path3153" d="m849.03,230.16c-1.6873,0.0169-3.4705,0.0584-5.5,0.125-17.287,0.56748-28.354,4.1415-46.281,14.938-12.288,7.4003-37.031,17.985-76.719,32.812-50.144,18.734-81.567,31.303-85,34-2.4073,1.8917-26.634,11.18-45,17.25-20.046,6.6256-32.032,10.309-73,22.375-12.1,3.5637-27.4,8.0553-34,10-12.835,3.7817-11.646,3.7304-32,1.375-4.95-0.57281-14.373-1.2894-20.938-1.5938-11.469-0.5318-22.036-2.6567-30.188-6.0625-1.9109-0.79842-8.2978-2.6112-14.188-4.0312-9.2568-2.2319-12.856-2.555-26.688-2.5312-11.144,0.0191-17.669,0.4745-21.5,1.5312-17.645,4.8675-22.215,5.8752-28.688,6.2812-13.821,0.86705-27.39-4.0597-41.969-15.188-2.4294-1.8544-7.3858-4.7914-11.031-6.5312-9.4176-4.4946-15.556-3.9271-28.406,2.625-15.722,8.0167-16.64,8.4181-22.594,9.9688-7.4822,1.9489-14.977,1.8185-19.25-0.3125-2.5387-1.2659-4.5374-3.7371-7.8125-9.6875-5.4134-9.8352-7.3642-12.001-12.844-14.094-3.3963-1.2971-6.4787-1.5296-14.625-1.0938-18.786,1.0052-34.364,5.415-53.875,15.219-16.423,8.2519-35.809,14.368-58.406,18.438-9.9,1.7826-21.254,3.8595-25.219,4.625-3.9518,0.74-8.5643,1.38-10.238,1.38h-3.0312c0.018,35.636,0.5634,426.38,0,662h1564c0-9.3376,0.3245-18.497,0.9688-27.469v-562.41c-260.66-62.3-369.51-122.18-660.97-191.75-37.111-10.727-43.189-12.337-55-12.219z" transform="translate(-1390.7393,155.83136)" fill="#e9f7f8"/>
  <path id="path3149" fill="#e6f6f5" d="m-1390.7,898.87,0-280.96,2.25-1.2042c1.2375-0.66229,2.25-1.0965,2.25-0.96488,0,0.1316,1.2202-0.22465,2.7116-0.79167s3.7414-1.2033,5-1.4139c1.2586-0.21065,3.47-0.87094,4.9141-1.4673,4.3082-1.7792,11.036-3.4001,11.633-2.8028,0.3063,0.30638,1.0484,0.15118,1.649-0.34487,1.4918-1.2322,13.68-4.3261,14.361-3.6454,0.3011,0.30105,1.1456,0.0509,1.8767-0.55583,0.7311-0.60676,1.9956-0.84751,2.81-0.535s1.7656,0.10718,2.1138-0.4563c0.3483-0.56347,1.2483-0.78847,2-0.5,0.7518,0.28848,1.6151,0.12279,1.9186-0.36819,0.3034-0.49098,1.3303-0.92421,2.282-0.96273,2.6867-0.10875,6.5771-0.74438,8.2303-1.3447,0.825-0.29958,2.175-0.57765,3-0.61793,3.2217-0.15729,12.936-1.7038,17.377-2.7662,1.1678-0.27942,4.1483-0.69852,6.6233-0.93133,2.475-0.2328,6.075-0.71755,8-1.0772,1.925-0.35967,4.0959-0.55136,4.8242-0.42599,0.7283,0.12538,1.9767-0.31356,2.7742-0.97542,0.7975-0.66185,1.7352-0.91815,2.0838-0.56955,0.3486,0.34861,1.232,0.13739,1.9631-0.46937s1.9727-0.85627,2.7592-0.55447c0.7865,0.30181,1.6961-0.14475,2.0214-0.99234,0.4305-1.122,1.6539-1.4397,4.4986-1.1684,2.149,0.20494,3.7241,0.0762,3.5002-0.28614-0.224-0.36231,1.2764-0.97152,3.3341-1.3538,5.1701-0.9605,24.175-6.486,26.136-7.5989,3.4411-1.9528,28.589-9.9539,29.811-9.4849,0.712,0.27322,1.2945,0.13588,1.2945-0.30519s0.5625-0.81087,1.25-0.82177c1.2236-0.0194,7.8592-2.7942,14.672-6.1354,1.882-0.92299,3.682-1.6941,4-1.7136s1.4782-0.51974,2.5782-1.1117c1.1-0.59193,3.2375-1.3721,4.75-1.7336,1.5125-0.36156,2.75-1.0639,2.75-1.5608,0-0.70962,5.2917-3.0677,8-3.565,2.3759-0.43623,5-1.8112,5-2.6199,0-0.5454,0.45-0.71352,1-0.3736s1,0.17637,1-0.36343c0-0.97449,6.8135-3.7342,8.25-3.3416,0.4125,0.11275,0.75-0.32001,0.75-0.96168,0-0.64166,0.2786-0.88809,0.6191-0.54762,0.3404,0.34048,1.2985-0.0604,2.1289-0.89084,0.8305-0.83044,2.1503-1.2642,2.9329-0.96383,0.7827,0.30033,1.1772,0.14836,0.8768-0.33771-0.6389-1.0338,2.2298-2.3427,3.4635-1.5803,0.4623,0.28575,1.1278,0.0549,1.4788-0.51307,0.351-0.56794,1.0571-0.77373,1.5691-0.45729,0.512,0.31643,0.9309,0.0722,0.9309-0.54271,0-0.61492,0.45-0.83992,1-0.5s1,0.11492,1-0.5,0.45-0.83992,1-0.5,1,0.11492,1-0.5,0.4189-0.85914,0.9309-0.54271c0.512,0.31644,1.2181,0.11065,1.5691-0.45729s1.0571-0.77373,1.5691-0.45729c0.512,0.31643,0.9309,0.16703,0.9309-0.332,0-1.161,7.9939-4.3325,9.138-3.6254,0.4741,0.29302,0.862,0.008,0.862-0.63324,0-0.6413,0.675-0.90699,1.5-0.5904,0.825,0.31658,1.5,0.10222,1.5-0.47635s0.5344-0.87382,1.1875-0.65611c0.6531,0.2177,2.0031-0.4198,3-1.4167,1.5064-1.5064,6.5824-2.4804,10.062-1.9309,0.4125,0.0651,0.75-0.3619,0.75-0.94897,0-0.59668,0.8449-0.79924,1.9159-0.45932,1.0537,0.33444,2.2009,0.14675,2.5494-0.41707,0.8943-1.4471,23.826-0.68192,24.324,0.81162,0.2076,0.62269,1.4649,1.1322,2.7941,1.1322,1.3291,0,2.4166,0.375,2.4166,0.83333,0,0.45834,0.5625,0.84742,1.25,0.86463,2.2356,0.056,12.192,4.9993,14.458,7.1787,1.2145,1.1678,2.8797,2.1233,3.7003,2.1233,0.8207,0,1.852,0.57198,2.2918,1.2711,0.4399,0.69908,2.0372,1.8144,3.5497,2.4786,1.5125,0.66413,2.75,1.6672,2.75,2.2289,0,0.56179,0.675,1.0214,1.5,1.0214s1.5,0.47656,1.5,1.059c0,0.58246,0.3819,0.82302,0.8486,0.53458s1.7979,0.36,2.9582,1.441,2.5784,1.9654,3.1514,1.9654,1.0418,0.40122,1.0418,0.89159c0,0.49038,1.2375,1.2022,2.75,1.5818,1.5125,0.37961,2.75,0.54265,2.75,0.3623s1.35,0.62434,3,1.7882c228.1,125.19,1191.6,19.202,1191.5,624.38h-1564v-280.96zm453.54,55.223c2.3524-5.63,0.85896-8.1332-4.7259-7.9213-3.9058,0.1481-4.3404,0.4205-4.6258,2.8987-0.2631,2.2845,0.27233,3.0152,3.25,4.4352,1.9607,0.935,3.565,2.2916,3.565,3.0148,0,2.3098,0.92871,1.4212,2.5368-2.4274zm12.963-7.2578c-0.33992-0.55-1.0415-1-1.559-1-0.51754,0-0.94098,0.45-0.94098,1s0.70156,1,1.559,1c0.85746,0,1.2809-0.45,0.94098-1zm-93.5-393c0.825-0.53316,1.95-0.96937,2.5-0.96937s0.325,0.43621-0.5,0.96937-1.95,0.96937-2.5,0.96937-0.325-0.43621,0.5-0.96937zm11.5-4c0.3399-0.55,1.0681-1,1.6181-1s0.7218,0.45,0.3819,1-1.068,1-1.618,1-0.7219-0.45-0.382-1z"/>
  <path id="path3147" fill="#e1f5f4" d="m-1390.5,898.7,0.2517-281.13,9.5-2.867c24.621-7.4304,69.748-17.084,90.5-19.359,5.5883-0.6128,13.64-2.2906,29.5-6.147,10.38-2.524,30.691-8.8956,41-12.862,5.225-2.0102,10.4-3.8944,11.5-4.1871,2.28-0.60661,23.483-9.3917,31-12.844,61.674-28.328,76.702-33.788,93-33.79,13.504-0.002,20.351,2.9238,47.896,20.469,7.6426,4.8682,14.308,8.8513,14.811,8.8513,0.5034,0,4.7126,1.7874,9.3537,3.9719,15.192,7.1508,28.382,9.9504,49.94,10.6,11.065,0.33331,17.623,1.0756,25,2.8296,21.12,5.0217,28.573,7.8619,68.194,25.988,22.471,10.28,27.676,11.986,28.56,9.3608,0.31088-0.9237,0.78946-0.96353,1.8333-0.15259,2.0058,1.5582,11.766,4.5632,15.913,4.8992,1.925,0.15601,6.2,1.0528,9.5,1.9929,3.3,0.94009,7.9125,2.2128,10.25,2.8282,3.0258,0.79662,4.25,1.6411,4.25,2.932,0,2.52,2.6144,3.2664,7.1761,2.0488,2.425-0.64728,4.0892-0.67826,4.4571-0.083,1.1889,1.9236,9.0549,4.489,15.605,5.0894,4.6089,0.42244,7.6637,1.3019,9.6672,2.7832,2.209,1.6332,3.7484,2.016,6.2619,1.557,1.9982-0.36487,6.136,0.14708,10.333,1.2784,15.135,4.0801,42.433,12.309,50.5,15.223,4.675,1.6889,10.3,3.6458,12.5,4.3488,5.7792,1.8466,36.225,13.937,48.439,19.236,9.9496,4.3163,10.771,4.5032,17.5,3.9837,7.5636-0.58387,14.587-2.9359,42.359-14.186,24.944-10.104,32.84-12.026,49.202-11.975,15.129,0.0475,10.71-1.2755,41.5,12.424,21.803,9.701,46.11,19.206,71.849,28.096l6.849,2.3656,4.151-2.376c13.569-7.7671,19.396-10.457,30.276-13.978,10.98-3.5534,31.93-8.0183,44.875-9.5638,2.75-0.32831,6.575-0.80128,8.5-1.051,6.7692-0.87826,35.616-3.3464,46-3.9357,12.934-0.73402,37.426-3.2229,45.5-4.6237,11.793-2.0461,29.255-6.8773,45-12.45,23.175-8.203,24.14-8.4608,31.701-8.4608,19.299,0,44.108,9.5185,86.799,33.302,28.415,15.83,58.214,28.992,75.5,33.346,7.0838,1.7843,8.5541,1.8263,44.5,1.2713,11.505-0.17763,16.566,0.20805,24.5,1.8671,12.178,2.5465,28.355,5.3899,47,8.2613,15.324,2.3599,28.83,5.5525,37.75,8.9232l5.75,2.1728v454.86h-1564l0.2518-281.13z"/>
  <path id="path3145" fill="#ddf4f4" d="m-1390.7,693.33c-0.062-71.588,0.027-75.501,1.7056-75.513,0.9737-0.007,4.6953-0.93473,8.2703-2.0614,21.342-6.726,46.697-12.404,75.5-16.908,38.338-5.9951,51.684-9.1513,79.5-18.801,15.294-5.3056,28.335-10.443,38.82-15.293,3.4758-1.6079,6.5412-2.9234,6.8119-2.9234s2.8268-1.0862,5.6802-2.4137c18.03-8.3883,24.478-11.33,35.188-16.057,6.6-2.9124,13.125-5.628,14.5-6.0348,1.375-0.40678,2.95-1.0763,3.5-1.4878,2.066-1.5458,19.562-6.9168,27.971-8.5869,7.1684-1.4236,9.7966-1.5374,14.652-0.63441,8.3942,1.5611,21.582,7.6574,34.387,15.896,14.015,9.0169,16.706,10.558,29.547,16.92,17.23,8.5368,29.284,11.217,53.169,11.82,9.1349,0.23089,17.433,0.84376,18.441,1.3619,1.0078,0.51817,3.7106,1.2287,6.0063,1.5789,10.176,1.5524,38.766,12.107,58.937,21.757,4.4612,2.1344,8.3694,3.8806,8.6849,3.8806,0.31547,0,5.6631,2.475,11.884,5.5,6.2205,3.025,11.671,5.5,12.112,5.5,0.44089,0,4.0432,1.5302,8.0051,3.4004,7.6194,3.5967,25.424,9.5996,28.472,9.5996,0.99453,0,3.5909,0.93461,5.7697,2.0769s5.4872,2.2394,7.3521,2.4379c11.143,1.1862,25.766,3.9796,26.691,5.0986,1.9426,2.3495,5.9522,3.2825,10.036,2.3352,2.1356-0.49545,5.4274-0.91156,7.315-0.92468,5.8962-0.041,33.37,6.8512,52.369,13.138,16.294,5.3913,59.655,21.93,62.199,23.724,1.6963,1.1964,11.821,4.9292,15.23,5.6149,1.7765,0.35737,5.8265,0.13366,9-0.49714,5.2309-1.0397,23.287-7.1464,30.77-10.406,1.65-0.71886,4.8-2.1008,7-3.0709,19.182-8.4584,36.35-12.769,51.003-12.806,12.494-0.0315,8.4476-1.3767,50.497,16.788,12.375,5.3458,26.1,11.027,30.5,12.625,4.4,1.5979,8.9,3.3398,10,3.8709,3.7489,1.8098,22.99,8.2008,26.202,8.7032,2.5627,0.40076,4.7532-0.44076,10.966-4.2129,25.344-15.387,57.711-21.697,140.83-27.456,29.078-2.0147,48.992-6.2622,78-16.636,22.326-7.9844,26.914-8.807,38.172-6.8437,19.311,3.3676,41.053,12.768,85.328,36.891,27,14.711,53.595,25.917,70.5,29.706,3.3,0.73954,10.5,1.284,16,1.2099s16.525-0.24565,24.5-0.38121c12.607-0.2143,16.655,0.15464,31,2.8253,9.075,1.6895,21.225,3.8066,27,4.7046,28.98,4.5064,42.199,7.3207,52.5,11.177l5,1.8718,0.2522,227.22,0.2521,227.22h-1564c1.3104-160.92,0.2055-343.85,0.034-486.5z"/>
  <path id="path3141" fill="#d8f2ef" d="m-1390.7,984.83c0-143.51,0.2964-195,1.1225-195,0.7419,0,0.67-0.54518-0.2123-1.6082-1.134-1.3664-1.0485-1.8175,0.5687-3,1.0469-0.76549,2.2712-1.3918,2.7207-1.3918,0.4496,0,0.2623-0.88884-0.4162-1.9752-1.0406-1.6663-0.9246-2.2235,0.7416-3.5628,1.3951-1.1214,1.608-1.7405,0.725-2.1081-1.8753-0.7809-1.5043-4.1574,0.5-4.5502,1.3552-0.26562,1.75-1.3537,1.75-4.8233,0-4.147,0.2051-4.5039,2.7568-4.7974,2.4233-0.27872,2.9899,0.22685,4.6843,4.1797,1.0602,2.4732,2.8735,5.003,4.0297,5.6218,1.6448,0.88029,2.0398,1.9144,1.8157,4.7537-0.2484,3.1461,0.046,3.7123,2.2135,4.2578,2.5744,0.64791,2.9058,2.1704,1.4707,6.7557-0.6092,1.9463-0.2704,2.3385,2.4982,2.8922,4.1352,0.82704,4.8494,2.8563,2.0529,5.8331-2.4049,2.5599-2.0078,4.5232,0.9148,4.5232,3.2354,0,4.3941,2.4679,3.0587,6.5144-1.455,4.4085-0.6216,8.6632,1.5348,7.8357,0.8303-0.31863,1.4308-1.5402,1.3343-2.7147-0.3659-4.4541,0.1953-6.4177,1.9663-6.8808,1.3232-0.34602,1.8925-1.5565,2.0537-4.3666,0.299-5.2106,0.6408-7.5923,1.3471-9.3879,0.3246-0.825,1.1785-3.6375,1.8976-6.25,1.608-5.8413,3.6866-6.169,6.344-1,2.8518,5.5471,4.5595,7.25,7.2708,7.25h2.4339l-2.5889-3.0767c-3.3812-4.0183-3.3299-5.9143,0.1611-5.9565l2.75-0.0333-2.25-1.877c-3.1656-2.6409-2.8261-4.6912,0.9004-5.4365,3.02-0.604,3.0795-0.70845,1.4366-2.5238-1.6254-1.796-1.6062-1.9692,0.3714-3.3544,1.8394-1.2884,1.9059-1.6095,0.5634-2.7236-2.198-1.8242-1.8705-3.7138,0.7581-4.3735,2.004-0.50296,2.2319-1.0751,1.8836-4.7275-0.6683-7.0083,4.5287-7.2915,7.4067-0.40352,0.7704,1.8439,2.3704,4.0318,3.5555,4.8618,1.7612,1.2336,2.0482,2.1656,1.5715,5.1033-0.5447,3.3566-0.3888,3.6329,2.3598,4.1826,3.0832,0.61664,3.9138,3.2552,1.9849,6.3051-1.1448,1.81,0.4859,4.0336,2.9581,4.0336,0.9653,0,2.2996,0.65607,2.9651,1.4579,0.9796,1.1804,0.7174,1.9505-1.3775,4.0454-3.3932,3.3931-3.2642,4.3047,0.6624,4.6833l3.25,0.31336-0.3154,7.0732c-0.3421,7.6685,0.1672,8.6368,5.1717,9.8346,2.134,0.51074,3.1999,0.2295,4.2148-1.1121,1.2759-1.6866,1.5102-1.6135,3.8577,1.2043,1.3746,1.65,2.5155,3.7324,2.5353,4.6276,0.02,0.89515,0.706,2.1836,1.5249,2.8633,0.819,0.67967,1.2648,1.5985,0.9908,2.0418-0.274,0.44334,0.2117,1.516,1.0794,2.3836,0.9108,0.91078,1.3247,2.3741,0.9794,3.4622-0.3858,1.2155-0.027,2.1039,1.0113,2.5022,1.2019,0.46122,1.4453,1.3645,0.9615,3.5673-0.5113,2.3281-0.212,3.2219,1.4204,4.2414,2.1771,1.3596,2.7614,4.2641,1.0682,5.3105-1.8508,1.1439-1.0201,2.5,1.5314,2.5,2.9459,0,4.2366,2.3697,2.4581,4.5127-0.9877,1.19-0.9676,1.4873,0.1005,1.4873,0.7342,0,2.3481,1.2375,3.5865,2.75,1.7042,2.0815,2.2603,2.3415,2.2876,1.0696,0.021-0.96267,0.9905-1.8169,2.2707-2,2.0172-0.28843,2.2492-0.91903,2.3822-6.4744,0.081-3.3852,0.5379-6.7602,1.0152-7.5,0.4773-0.73983,1.321-3.3701,1.8749-5.8451,1.398-6.2469,3.9181-6.0807,7.5787,0.5,1.5297,2.75,2.8112,5.7875,2.8478,6.75,0.037,0.9625,0.5164,1.75,1.0664,1.75s1,1.0984,1,2.441c0,1.3425,0.45,2.7191,1,3.059,0.55,0.33992,1,2.1116,1,3.937,0,2.323,0.6752,3.7771,2.25,4.8455,1.9515,1.3239,2.0842,1.8027,1,3.6084-1.7099,2.8479-1.6098,3.1091,1.191,3.1091,2.8683,0,4.2541,1.7049,2.6719,3.2871-1.4742,1.4742-1.4118,2.7114,0.1371,2.7192,0.6875,0.003,2.0751,1.4554,3.0835,3.2265,1.642,2.8839,1.9379,3.0336,2.8337,1.4329,0.5501-0.98299,0.747-2.4471,0.4375-3.2535-0.3094-0.80644,0.072-3.3666,0.8468-5.6893,0.7751-2.3227,1.7167-5.9155,2.0923-7.9841,1.2224-6.7319,3.3068-6.0281,7.8784,2.66,1.4178,2.6944,2.5778,5.5069,2.5778,6.25,0,0.74308,0.4988,1.3511,1.1084,1.3511,0.6701,0,0.8707,0.94738,0.5071,2.3957-0.4163,1.659-0.1176,2.5813,0.9713,2.9992,1.1611,0.44555,1.4038,1.3714,0.9278,3.5386-0.5355,2.4385-0.2021,3.2251,1.9706,4.6488,1.4384,0.94247,2.3873,2.3076,2.1087,3.0336-0.2786,0.72604-0.076,1.586,0.4498,1.9111,0.526,0.32508,0.9563-0.30896,0.9563-1.409s0.4204-2.2598,0.9342-2.5773c0.5138-0.31753,0.6816-2.1335,0.3729-4.0355-0.4883-3.0092-0.2398-3.5803,1.9137-4.3991,2.2306-0.84806,2.4931-1.5479,2.6594-7.0889,0.1014-3.3814,0.5761-6.906,1.0547-7.8326,0.4786-0.92658,1.442-3.6152,2.1409-5.9746,1.7253-5.8245,3.6549-5.1698,7.3998,2.5105,1.6635,3.4114,3.2521,6.2198,3.5303,6.241,0.2783,0.0211,1.1451-1.4241,1.9264-3.2116,2.2014-5.0368,5.4457-9.724,6.7402-9.7376,1.4909-0.0157,3.2329,5.2437,4.3467,13.124,1.02,7.2162,1.7567,8.2094,5.4091,7.2926,3.211-0.80591,4.9323-4.3692,4.6373-9.5998-0.175-3.1019,0.1364-3.7222,2.0083-4,1.9508-0.28956,2.2625-1.0454,2.6102-6.3288,0.2172-3.3,0.6872-6.675,1.0444-7.5,0.3573-0.825,1.1302-3.525,1.7176-6,1.5341-6.4636,4.0918-6.1295,7.6561,1,1.5124,3.025,3.0022,6.309,3.3107,7.2978,0.4633,1.4845,1.2167,1.6792,4.3241,1.1173,4.8159-0.87079,4.9354-1.0146,2.8023-3.3717-2.1654-2.3927-1.3724-5.0434,1.5088-5.0434,1.8112,0,2.02-0.41357,1.4709-2.9134-0.5218-2.3759-0.2597-3.0341,1.4206-3.5674,1.2317-0.39094,2.0755-1.5318,2.098-2.8366,0.021-1.2004,1.5411-3.9392,3.3787-6.0861,4.0432-4.7236,6.5837-4.4283,6.5837,0.76514,0,1.94,0.581,3.6473,1.3402,3.9387,0.8447,0.32413,1.3668,2.272,1.4121,5.268,0.049,3.2465,0.5754,5.0355,1.6598,5.6424,1.8952,1.0606,2.0912,3.4339,0.3379,4.0912-0.8647,0.32415-0.6376,0.93848,0.7367,1.993,1.9021,1.4594,1.9117,1.6074,0.2248,3.4714-1.5552,1.7185-1.5861,2.0929-0.2632,3.1908,0.8244,0.68413,1.7763,2.723,2.1154,4.5308,0.3705,1.9748,1.4531,3.6602,2.7119,4.2219,1.5263,0.68104,2.4348,2.5446,3.3456,6.8626,0.6877,3.2602,1.2918,7.0527,1.3424,8.4277,0.051,1.375,1.4432,3.8262,3.0946,5.4471,3.4754,3.4111,4.6662,6.9752,3.0008,8.9818-0.9178,1.1059-0.7808,1.5246,0.6473,1.9779,0.9964,0.31624,2.2576,1.5916,2.8027,2.8341,1.5925,3.6302,2.9398,2.6282,3.6852-2.7409,1.094-7.88,1.9653-11.48,2.9211-12.071,0.4866-0.30072,0.8847-1.4532,0.8847-2.5611,0-3.5358,3.1447-1.6593,6.087,3.6323,1.529,2.75,2.81,5.5946,2.8466,6.3214,0.036,0.72678,0.757,2.012,1.6009,2.8559,1.1752,1.1752,1.2659,1.8582,0.3874,2.9167-0.8877,1.0696-0.7824,1.5222,0.4655,2.001,1.0405,0.39926,1.6126,1.8102,1.6126,3.9766,0,2.2939,0.6116,3.6851,1.9302,4.3908,1.0616,0.56815,2.1062,2.0465,2.3215,3.2852,0.367,2.1125,0.4731,2.0661,1.7109-0.74781,0.7258-1.65,1.2188-4.4949,1.0957-6.322-0.1772-2.6284,0.2109-3.4357,1.8589-3.8666,1.2532-0.32773,2.1116-1.3944,2.1552-2.678,0.2687-7.9276,3.0021-19.753,5.1113-22.113,1.0633-1.1899,5.7277,4.1926,5.7804,6.6704,0.02,0.93004,0.4859,1.9691,1.0359,2.309,0.55,0.33992,1,1.5056,1,2.5904s0.7085,2.2442,1.5744,2.5765c1.0631,0.40795,1.3884,1.3451,1.0017,2.8859-0.3421,1.3632-0.08,2.446,0.6517,2.6898,0.6956,0.23187,1.1204,1.7714,0.9837,3.5652-0.1718,2.2543,0.3355,3.5168,1.774,4.4152,2.132,1.3315,2.6913,4.2407,1.0145,5.277-1.8256,1.1283-1.0349,2.5,1.441,2.5,3.291,0,4.1329,1.7084,2.002,4.063-1.6795,1.8558-1.6675,1.937,0.287,1.937,1.122,0,2.7771,1.125,3.6781,2.5,1.2783,1.9509,2.4845,2.5,5.4925,2.5,5.2329,0,6.7145-1.91,4.6214-5.9576-1.8022-3.485-1.3274-5.0425,1.537-5.0425,2.5879,0,2.448-0.86134-0.6682-4.114-2.9833-3.1139-2.4773-4.8699,1.4182-4.9219l2.691-0.036-2.75-2.2516c-3.5916-2.9407-3.4988-4.6764,0.25-4.6764,2,0,3-0.5,3-1.5,0-0.825-0.45-1.5-1-1.5-1.6576,0-1.1239-2.8312,0.7292-3.8683,1.6259-0.90989,1.6177-1.091-0.138-3.0309-1.8331-2.0257-1.8237-2.0794,0.5209-2.9527,2.0183-0.7518,2.3879-1.5673,2.3879-5.2688,0-3.7491,0.3163-4.4243,2.1977-4.692,1.7204-0.24478,2.6747,0.62399,4.3939,4,1.208,2.372,3.0715,4.9288,4.1413,5.6817,1.5189,1.0691,1.8105,2.0864,1.3308,4.6434-0.5575,2.9717-0.3347,3.3718,2.411,4.329,2.9641,1.0333,4.0076,3.4336,2.0253,4.6587-0.55,0.33992-1,1.5027-1,2.584,0,1.3966,0.8938,2.1447,3.086,2.5832,4.2311,0.84623,4.8412,3.1385,1.5815,5.9424-3.4486,2.9663-3.3804,4.3904,0.2101,4.3904,3.9924,0,5.759,2.3075,4.2694,5.5767-2.4961,5.4786-0.53456,11.423,3.7694,11.423,0.97547,0,2.5881,0.9,3.5836,2,1.77,1.9558,6.5,2.8104,6.5,1.1743,0-0.4542-1.125-1.8826-2.5-3.1743-3.1997-3.006-3.1997-5,0-5,3.0779,0,3.2084-1.2858,0.32482-3.2004-2.8306-1.8794-1.8164-4.7996,1.6668-4.7996,2.5094,0,2.5249-0.0451,0.88083-2.5542-1.6083-2.4546-1.5897-2.5762,0.47695-3.1166,2.4927-0.65185,2.818-2.1358,0.65055-2.9675-2.3744-0.91114-1.7463-3.2617,1.0596-3.966,1.7131-0.42995,2.3731-1.1285,1.9957-2.112-1.5576-4.059-1.5899-6.0102-0.11967-7.2304,1.9348-1.6058,3.9114-0.22778,6.2736,4.3738,0.86762,1.6901,2.6562,4.0808,3.9747,5.3127,1.9298,1.8031,2.1943,2.619,1.3566,4.1843-1.6231,3.0327-1.2748,3.779,2.0763,4.4492,2.8038,0.56075,3.0518,0.89978,2.4685,3.375-1.221,5.1821-1.1006,5.5195,2.4146,6.7686,3.9473,1.4028,4.0322,2.7456,0.414,6.5524-2.7806,2.9256-2.3245,3.9307,1.784,3.9307,3.5244,0,4.4399,2.0148,3.0191,6.6442-0.9799,3.1928-0.87198,3.5559,1.3592,4.5725,1.333,0.6074,2.4237,1.8772,2.4237,2.8218s0.98485,2.3714,2.1886,3.1707c1.6948,1.1253,2.208,2.4889,2.2748,6.0444,0.0876,4.6614,2.4848,8.7464,5.1326,8.7464,2.2402,0,2.6335,2.0008,0.91032,4.6307-1.912,2.9181-1.5056,3.8212,1.3164,2.9255,2.2174-0.7038,5.678-8.606,6.703-15.306,0.7925-5.1808,2.5198-5.4376,5.0443-0.75,2.0707,3.845,3.0888,4.2012,5.9757,2.0903,1.8355-1.3422,1.8446-1.5017,0.18894-3.3312-1.9096-2.11-1.4005-3.2591,1.4439-3.2591,1.582,0,1.757-0.5515,1.2268-3.8668-0.78461-4.9066,0.85378-8.1332,4.1299-8.1332,2.978,0,3.1974-1.5256,0.46482-3.2321-3.1608-1.974-2.5748-4.7679,1-4.7679,3.3808,0,3.5004-0.2098,1.75-3.0691-1.0603-1.732-0.97335-2.199,0.57303-3.077,1.7072-0.9693,1.7168-1.1524,0.15204-2.8815-1.7786-1.9653-1.2607-3.9724,1.0249-3.9724,2.0666,0,2.6266-1.5369,1.5712-4.3126-0.65112-1.7126-0.56778-2.9937,0.26922-4.1383,1.6577-2.267,4.1944-1.0862,5.7537,2.6783,0.70252,1.696,2.5486,4.3842,4.1024,5.9737,2.3724,2.4269,2.6482,3.2204,1.7216,4.9519-1.2166,2.2731-0.45672,3.4585,2.5818,4.0275,1.9459,0.3644,2.4896,2.9707,1.4103,6.7602-0.95165,3.3413,3.5818,1.6893,15.706-5.723,27.015-16.517,46.123-25.546,68.384-32.312,28.189-8.5688,57.043-22.971,82.788-41.323,12.234-8.721,26.06-20.01,47.712-38.959,29.403-25.731,35.617-30.311,48.127-35.469,13.584-5.6018,22.706-7.1988,54.873-9.6067,38.071-2.8499,52.289-5.526,76.048-14.314,18.535-6.8554,47.376-22.743,78.85-43.438,8.194-5.3876,15.365-9.7957,15.935-9.7957,0.57036,0,5.3752-2.4778,10.677-5.5062,25.803-14.738,51.356-19.889,126.49-25.499,45.88-3.426,58.806-6.0627,96.386-19.662,15.469-5.5978,21.21-6.5777,30.757-5.2498,18.873,2.625,38.777,10.851,76.857,31.764,31.806,17.468,59.716,29.786,77.5,34.205,9.8695,2.4523,15.082,2.7094,42.5,2.0963,11.033-0.24674,16.253,0.24043,34.5,3.2198,11.825,1.9308,26.675,4.2506,33,5.1552,17.343,2.4803,30.482,5.2761,40.75,8.6707l9.25,3.0582v453.74h-1564zm396-54c0-0.55-0.42344-1-0.94098-1s-1.2191,0.45-1.559,1c-0.33992,0.55,0.0835,1,0.94098,1,0.85746,0,1.559-0.45,1.559-1zm-41-2.8776c0-1.6236-2.8714-3.2787-5.1166-2.9492-2.7985,0.4107-3.5941,2.5033-1.1887,3.1268,3.1576,0.8185,6.3053,0.7299,6.3053-0.1776zm-1.5-9.1224c-0.3399-0.55-1.2399-1-2-1s-1.6601,0.45-2,1c-0.3519,0.5694,0.5093,1,2,1s2.3519-0.4306,2-1zm-133.5-48c0-0.55-0.45-1-1-1s-1,0.45-1,1,0.45,1,1,1,1-0.45,1-1zm26-25.2c0-1.6154-0.2957-1.9043-1.1129-1.0871-0.612,0.61207-0.8105,1.6021-0.4409,2.2,1.0344,1.6737,1.5538,1.3016,1.5538-1.1129zm-153-24.769c0-1.339-0.4797-1.7845-1.5-1.393-0.825,0.31659-1.5,1.2025-1.5,1.9686,0,0.76615,0.675,1.393,1.5,1.393,0.8254,0,1.5-0.8854,1.5-1.9686z"/>
  <path id="path3135" fill="#c5ede9" d="m-1390.6,984.58c0.085-107.39,0.3497-194.21,0.587-192.94,0.5681,3.0426,3.0144,3.8866,5.104,1.7611,1.5648-1.5918,1.5277-1.82-0.5776-3.547-2.8787-2.3615-2.8368-3.0252,0.191-3.0252,3.2984,0,4.1316-1.7098,1.9876-4.0789-1.6928-1.8705-1.6864-2.013,0.152-3.3784,1.52-1.1289,1.6927-1.7955,0.8297-3.2036-0.8646-1.4107-0.6775-2.1118,0.9053-3.3936,1.712-1.3863,1.8428-2.0526,0.9214-4.6955-1.0297-2.9539-0.7699-4.25,0.8521-4.25,0.4157,0,1.2538,1.5088,1.8624,3.353,0.6086,1.8441,2.1867,4.3677,3.5069,5.608,2.0776,1.9518,2.2471,2.5914,1.2606,4.7566-0.9621,2.1116-0.8434,2.7183,0.7617,3.892,1.0459,0.76475,2.4906,1.3904,3.2105,1.3904,1.5715,0,1.674,1.4491,0.2859,4.0428-0.797,1.4892-0.5761,2.3581,1,3.9343,1.1126,1.1126,2.6979,2.0229,3.5229,2.0229,2.0694,0,1.8767,1.3492-0.5,3.5-3.3533,3.0347-2.2534,4.7824,4.3538,6.9178,1.3117,0.42393,1.6358,1.1083,1.1085,2.3407-1.4844,3.4693-1.6687,7.329-0.4863,10.184,1.263,3.0491,4.2283,4.9451,4.8442,3.0973,0.1971-0.5913,0.9932-1.7099,1.7691-2.4858,0.7759-0.77589,1.4107-2.9697,1.4107-4.8752,0-1.9958,0.5756-3.6853,1.3578-3.9855,1.1574-0.44413,3.1082-5.8678,2.815-7.826-0.052-0.34821,0.4842-3.4721,1.192-6.942,1.2949-6.3478,3.1439-8.6584,4.2077-5.2581,0.3154,1.0082,0.9907,2.6146,1.5005,3.5696,0.5099,0.95504,0.927,2.4317,0.927,3.2814,0,0.84972,0.6668,1.8008,1.4817,2.1135,1.0773,0.4134,1.2234,1.0512,0.5352,2.3371-1.1606,2.1686-0.4063,3.0315,2.6498,3.0315,1.643,0,2.3333-0.57424,2.3333-1.941,0-1.0675-0.45-2.2191-1-2.559-1.8508-1.1439-1.0201-2.5,1.5314-2.5,3.7198,0,4.18-2.648,1.0314-5.9344l-2.697-2.815,2.5671-0.6443c3.1668-0.79482,3.3001-3.1742,0.3171-5.6626l-2.25-1.877,2.55-0.0333c3.7853-0.0494,5.3149-1.9726,3.3211-4.1758-1.4701-1.6244-1.4651-1.9064,0.061-3.4325,1.5202-1.5202,1.5267-1.813,0.075-3.4168-1.4635-1.6171-1.4186-1.7982,0.5753-2.3196,1.9547-0.51115,2.0969-1.0045,1.4787-5.1271-0.848-5.6547,0.7751-6.099,2.9643-0.81151,0.8539,2.0625,2.5262,4.4958,3.7162,5.4072,1.8595,1.4243,2.0037,2.0082,1.026,4.154-0.9414,2.066-0.8334,2.7721,0.6259,4.0928,0.97,0.8778,2.5157,1.596,3.4349,1.596,1.9861,0,2.0102,0.16198,0.5126,3.4489-0.9654,2.1188-0.8562,2.8773,0.6549,4.5471,0.9975,1.1022,2.644,2.0041,3.6587,2.0041,2.5985,0,2.2916,1.4774-0.7163,3.4482-3.7958,2.4871-2.9822,5.9022,1.5613,6.5537,3.0376,0.43557,3.4613,0.83195,3.2072,3-0.8487,7.2405-0.5726,9.9368,1.2205,11.918,1.0353,1.1439,2.6001,2.0868,3.4773,2.0952,0.8773,0.008,2.2668,0.44003,3.0879,0.95912,1.2348,0.78067,0.8459,1.6063-2.25,4.7768-4.1721,4.2726-4.74,6.7975-1.7429,7.7488,4.3866,1.3923,7.0644-1.8365,8.2247-9.9171,0.3706-2.5804,2.6333-3.1996,3.3478-0.91603,0.3154,1.0082,0.9907,2.6146,1.5005,3.5696,0.5099,0.95504,0.927,2.3624,0.927,3.1276,0,0.76511,0.6286,1.9128,1.3968,2.5503,0.7878,0.65383,1.1585,2.0703,0.8503,3.2489-0.3407,1.3027,0.04,2.4178,1.0102,2.9609,0.9575,0.53585,1.3503,1.6604,1.0205,2.9216-0.3442,1.3163,0.293,2.933,1.7798,4.5156,1.7869,1.9021,2.0448,2.7363,1.1292,3.652-1.9116,1.9115-1.3744,3.7016,1.3132,4.3761,2.6012,0.65285,3.2177,1.8491,1.5,2.9106-1.9152,1.1836-0.9824,3.3693,1.5719,3.6836,1.504,0.18503,3.2484,1.4373,4.2009,3.0157,1.5202,2.5192,1.5089,2.832-0.1699,4.687-2.0093,2.2202-1.4104,4.1137,1.3011,4.1137,2.6906,0,5.6342-3.8008,5.2448-6.772-0.2274-1.7359,0.3599-3.103,1.7994-4.1889,1.5455-1.1658,2.2484-2.986,2.5393-6.5755,0.477-5.8863,2.2992-15.584,3.074-16.358,0.744-0.7441,2.4043,2.0117,2.4232,4.0223,0.01,0.89515,0.6903,2.1878,1.5153,2.8724,0.825,0.68469,1.5,2.0632,1.5,3.0634s0.4078,2.0705,0.9061,2.3786c0.4984,0.30801,0.6723,1.4541,0.3866,2.5469-0.3295,1.2598,0.071,2.2134,1.0939,2.606,1.0413,0.3996,1.6134,1.8098,1.6134,3.977,0,2.3473,0.6089,3.6837,2.0233,4.4407,1.8468,0.98835,1.8929,1.2691,0.5285,3.217-1.7362,2.4787-0.5012,4.7705,2.5706,4.7705,2.2573,0,2.4262,1.2998,0.3886,2.9909-1.9525,1.6204-1.0073,3.0091,2.048,3.0091,1.3426,0,2.441,0.41547,2.441,0.92327,0,1.7285,5.2757,7.201,6.1241,6.3526,0.4647-0.46464,1.2764-3.5293,1.8038-6.8103,1.3702-8.5241,2.7176-14.444,3.4554-15.182,0.8647-0.86463,3.5454,2.8052,3.5849,4.9076,0.017,0.93004,0.4818,1.9691,1.0318,2.309,0.55,0.33992,1,1.4915,1,2.559s0.4586,1.941,1.0191,1.941c0.572,0,0.7587,1.0371,0.4256,2.3645-0.4084,1.6271-0.1025,2.5529,0.9809,2.9686,0.955,0.36645,1.5744,1.8007,1.5744,3.6453,0,1.7587,0.8076,3.7326,1.9151,4.6809,1.5348,1.3142,1.6913,1.9982,0.7878,3.4447-1.5096,2.4174-0.6566,3.0367,3.1374,2.2779,2.1165-0.42331,3.1597-1.2156,3.1597-2.4,0-0.97241,0.6505-2.0176,1.4456-2.3227,1.0466-0.40161,1.2873-1.5304,0.8721-4.0893-0.4387-2.7028-0.1906-3.6815,1.0543-4.1592,0.8954-0.34359,1.628-1.45,1.628-2.4587s0.4892-2.1363,1.0871-2.5059c0.5979-0.36953,0.874-1.4868,0.6136-2.4828-0.484-1.8508,1.5194-11.892,2.7793-13.931,0.9691-1.568,3.52,0.62867,3.52,3.0311,0,1.0002,0.45,2.0966,1,2.4366,0.55,0.33992,1,1.52,1,2.6224,0,2.9367,6.4525,2.315,6.6021-0.63609,0.1284-2.5305,3.1578-8.4863,4.3166-8.4863,1.2488,0,2.0082,2.4264,3.0404,9.7148,0.5002,3.532,1.5015,7.1353,2.2251,8.0072,0.7236,0.87192,1.1817,2.3763,1.0179,3.3431-0.1638,0.96679,0.1737,2.0492,0.7501,2.4054,0.5763,0.35618,1.0478,1.521,1.0478,2.5886,0,1.2855,0.6873,1.941,2.0352,1.941,1.6896,0,1.8625-0.32262,1.0183-1.9-0.7816-1.4604-0.6495-2.041,0.5709-2.5093,1.1425-0.4384,1.4066-1.3311,0.9418-3.1831-0.5149-2.0514-0.2319-2.6822,1.3939-3.1073,1.1219-0.2934,2.0399-1.3328,2.0399-2.3098,0-0.97701,0.6032-2.0078,1.3404-2.2907,0.8871-0.3404,1.1797-1.6091,0.8654-3.7511-0.3672-2.5014,0.02-3.6099,1.7022-4.8791,1.5996-1.2066,2.2761-2.9594,2.5498-6.6059,0.2048-2.7299,0.6639-6.3135,1.0201-7.9635s0.8529-4.0125,1.1039-5.25c0.7123-3.5124,2.2223-2.6725,4.4948,2.5,1.1478,2.6125,2.4715,5.4856,2.9416,6.3848,0.4702,0.89913,0.6059,2.5866,0.3017,3.75-0.3947,1.5095-0.09,2.1152,1.0635,2.1152,1.0473,0,1.6166,0.85962,1.6166,2.441,0,3.0577,1.6077,4.1295,3.6508,2.4339,1.1685-0.96974,1.4147-2.3803,0.9753-5.5861-0.5528-4.0329-0.4434-4.2888,1.834-4.2888,3.2795,0,4.0332-1.5983,2.1261-4.5088-2.016-3.0768-2.0059-3.1482,0.5419-3.8144,1.6888-0.44162,2.0221-1.1105,1.615-3.2403-0.3912-2.0463-0.065-2.8009,1.3719-3.1768,1.8496-0.48367,2.2159-1.2581,2.0149-4.2597-0.055-0.825,1.2308-3.075,2.8579-5l2.9584-3.5,0.027,3.691c0.015,2.03,0.4347,3.943,0.933,4.251,0.4984,0.30801,0.6842,1.4088,0.4129,2.4462s0,2.1892,0.5966,2.5597c0.7546,0.46639,0.7775,1.2571,0.074,2.5709-0.806,1.506-0.6023,2.1184,0.9872,2.9691,1.7132,0.91688,1.8234,1.3645,0.7627,3.0975-1.0411,1.701-0.962,2.1836,0.4934,3.0106,1.3996,0.79528,1.512,1.3392,0.5838,2.8255-0.9315,1.4916-0.7387,2.3629,1.0167,4.5945,1.1914,1.5146,2.1662,3.8293,2.1662,5.1438,0,1.5668,0.7844,2.6881,2.2773,3.2557,1.7794,0.67651,2.5447,2.1602,3.5,6.7854,0.6725,3.2558,1.2227,6.7168,1.2227,7.6911,0,0.97433,1.575,3.6936,3.5,6.0428,3.5283,4.3058,4.3409,6.9275,2.5,8.0653-1.7337,1.0715-1.0842,3.5,0.936,3.5,1.2174,0,2.7706,1.4849,4.1842,4,3.4483,6.1356,5.7816,5.2985,6.3339-2.2724,0.455-6.2372,1.6413-11.899,3.0858-14.726l1.2765-2.4986,1.2182,2.9986c0.67,1.6492,2.0834,4.8166,3.141,7.0386,1.0575,2.222,1.6408,4.775,1.2961,5.6733-0.4001,1.0426,0.077,2.01,1.3189,2.6746,1.4292,0.76493,1.81,1.7508,1.4346,3.7146-0.3832,2.0047,0.075,3.1154,1.8326,4.4411,1.9679,1.4844,2.1373,2.0164,1.0568,3.3183-1.7299,2.0845-0.6303,3.5771,2.1364,2.8998,2.8924-0.70805,4.8679-2.2603,4.217-3.3135-0.2805-0.45387,0.231-1.2399,1.1367-1.7468,1.201-0.6721,1.5319-1.906,1.2223-4.5579-0.3332-2.8538-0.037-3.7592,1.3742-4.2073,1.8079-0.57379,1.9281-0.95621,2.3576-7.5013,0.1287-1.9608,1.0163-6.3531,1.9724-9.7606,1.4103-5.0262,1.996-5.9816,3.1036-5.0624,0.7509,0.62318,1.3652,1.9514,1.3652,2.9516s0.45,2.0966,1,2.4366c0.55,0.33992,1,1.4364,1,2.4366s0.6286,2.3402,1.3968,2.9778c0.7878,0.65383,1.1585,2.0703,0.8503,3.2489-0.3561,1.3616,0.058,2.4278,1.1873,3.06,1.212,0.67825,1.5535,1.689,1.1345,3.3583-0.4167,1.6604,0.035,3.0224,1.4828,4.4701,1.6461,1.6461,1.8353,2.3796,0.9034,3.5025-1.5599,1.8794-0.4937,4.4458,1.8469,4.4458,2.8036,0,3.3879,1.1326,1.6022,3.1058-1.9771,2.1848-1.0609,3.8942,2.0874,3.8942,1.513,0,2.609,0.7417,3.0229,2.0455,0.5761,1.8154,1.3435,2.0124,6.8174,1.75,6.1425-0.2943,6.1678-0.308,6.0844-3.2955-0.046-1.65-0.4317-3.7875-0.857-4.75-0.6235-1.4111-0.2798-1.75,1.7747-1.75,3.8657,0,4.0287-1.5173,0.5844-5.4401l-3.1256-3.5599h2.5446c3.8186,0,4.2075-1.8218,1.0848-5.0813l-2.7964-2.9187h3.6871c4.0026,0,4.9016-1.7472,2.0968-4.0749-1.4447-1.199-1.4241-1.4413,0.2251-2.6472,1.5153-1.1081,1.6129-1.6516,0.5903-3.289-1.601-2.5635-1.5766-2.6636,0.8006-3.2852,1.7633-0.4611,1.9411-1.0593,1.3722-4.6166-0.8471-5.2973,0.8913-5.4006,3.5392-0.21023,1.0877,2.1322,2.7113,4.1582,3.6078,4.5022,1.2889,0.49459,1.4931,1.437,0.9752,4.502-0.618,3.6584-0.4823,3.9366,2.4125,4.9458,3.4827,1.2141,3.4726,1.1899,1.9204,4.5967-1.3375,2.9355,0.183,5.5767,3.2104,5.5767,3.0681,0,3.3204,2.0888,0.5615,4.647-1.4437,1.3387-2.6249,2.8499-2.6249,3.3583,0,1.2471,3.4077,2.9947,5.8394,2.9947,1.7965,0,1.9241,0.51642,1.4419,5.8343-0.5875,6.4798,0.72464,10.166,3.619,10.166,1.0065,0,2.9031,0.8413,4.2148,1.8696,1.3117,1.0284,3.8477,2.1892,5.6357,2.5797,4.6155,1.008,5.4214-1.6163,1.692-5.509-2.7372-2.857-2.7541-2.9403-0.59852-2.9403,3.1926,0,3.958-2.932,1.3225-5.0661-2.8148-2.2793-2.7334-2.9339,0.36462-2.9339,2.9632,0,4.2335-2.3734,2.4321-4.544-1.0371-1.2496-0.92641-1.7626,0.62485-2.897,1.8085-1.3224,1.8129-1.4582,0.10841-3.3417-1.7114-1.8911-1.6972-1.984,0.38604-2.5288,1.9636-0.5135,2.0983-0.99559,1.4623-5.2363-0.83593-5.5744,0.98094-5.8372,3.5359-0.51142,0.86955,1.8126,2.6534,4.1045,3.9641,5.0931,2.2171,1.6724,2.283,1.9845,0.94621,4.4823-1.3046,2.4377-1.2607,2.8135,0.47707,4.0842,1.0526,0.76971,2.5082,1.3995,3.2346,1.3995,0.98061,0,1.1561,1.0294,0.68142,3.9978-0.62123,3.885-0.53339,4.042,3.1126,5.5654l3.7519,1.5677-2.7543,2.8749c-3.3675,3.5149-2.7533,5.7491,1.6981,6.1766,3.5466,0.3406,3.5164,0.2318,2.2207,7.985-0.55144,3.2998-0.37736,3.7008,1.7369,4,1.506,0.2132,2.4597,1.104,2.656,2.4807,0.16841,1.1815,1.2235,2.388,2.3446,2.6811,1.6807,0.4396,1.9238,1.0549,1.3853,3.5068-0.37961,1.7283-0.20983,3.2476,0.40541,3.6279,0.5822,0.3598,1.0586,1.5428,1.0586,2.6289,0,1.2024,1.3894,2.7945,3.5524,4.0707l3.5524,2.096-2.1572,2.2963c-2.3391,2.4898-1.9042,4.4443,0.98889,4.4443,1.0002,0,2.3846,0.6821,3.0765,1.5157,1.0946,1.3189,1.4345,1.1755,2.6171-1.1041,0.74755-1.4409,1.139-2.9761,0.86979-3.4116-0.26916-0.4355,0.18045-2.0762,0.99915-3.646,0.81869-1.5697,1.4974-3.754,1.5083-4.854,0.031-3.1303,1.1356-6.5,2.1306-6.5,0.49764,0,1.4363,1.2375,2.0858,2.75,1.6399,3.8183,1.4758,3.7382,4.5276,2.2095,4.7763-2.3926,5.2936-3.0067,4.2209-5.0112-0.74416-1.3904-0.57948-2.0688,0.67224-2.7693,1.2789-0.7157,1.5181-1.7887,1.0467-4.694-0.81399-5.0161,0.61885-7.485,4.3439-7.485,3.4853,0,3.8837-1.8585,0.96482-4.5-2.5843-2.3388-2.5606-3.8128,0.048-2.9848,1.1264,0.3575,2.7127,0.098,3.5252-0.576,1.2955-1.0752,1.2687-1.4564-0.21737-3.0985-1.597-1.7647-1.5849-1.9528,0.21149-3.2663,1.8162-1.3281,1.8239-1.4847,0.1625-3.3205-1.673-1.8486-1.6381-1.9747,0.86134-3.1135,1.9209-0.87523,2.4141-1.6404,1.8783-2.9137-0.39966-0.94972-0.95748-2.798-1.2396-4.1073-0.75559-3.5067,1.8969-2.2522,3.8511,1.8214,0.86955,1.8126,2.6696,4.1224,4,5.1331,2.0861,1.5846,2.2492,2.1134,1.1852,3.8422-1.6485,2.6786-0.82238,4.4354,2.7132,5.77,2.7913,1.0536,2.8712,1.2493,1.737,4.2541-1.3304,3.5247-0.15576,5.0156,3.9745,5.0444,3.4159,0.024,3.7717,1.923,0.91826,4.9013-3.5297,3.6842-3.3105,5.1141,0.78377,5.1141,3.7825,0,5.2166,1.9925,3.6034,5.0067-2.5612,4.7857-0.0778,11.993,4.1323,11.993,1.5804,0,3.8713,1.8919,3.8713,3.1971,0,0.4384-1.6452,2.6182-3.6561,4.8439-4.3879,4.8569-3.7631,5.9019,3.7217,6.2246,5.6996,0.2458,6.1445-0.2395,4.8274-5.2656-0.26673-1.0179,0.4908-1.6017,2.3569-1.8165,3.3974-0.3909,3.4447-1.1823,0.25-4.1835-3.1997-3.006-3.1997-5,0-5,3.1614,0,3.1587-1.0326-0.0107-4.0101-2.7348-2.5692-1.9517-3.946,2.2607-3.9746,2.6848-0.018,2.9355-1.505,0.5-2.9649-1.6445-0.9857-1.6309-1.141,0.22505-2.5745,1.662-1.2837,1.7809-1.8365,0.75-3.4872-1.6041-2.5685-1.5799-2.6627,0.84742-3.2974,1.8514-0.4842,1.9993-1.0301,1.3865-5.1167-0.63511-4.2352-0.5254-4.5746,1.4786-4.5746,1.5392,0,2.5983,1.0379,3.6658,3.5929,0.82567,1.976,2.6633,4.5924,4.0836,5.8141,2.3005,1.9788,2.4447,2.4786,1.3212,4.578-1.0832,2.0239-1.0046,2.5443,0.5565,3.6858,0.99976,0.731,2.4067,1.3292,3.1266,1.3292,1.6553,0,1.6836,2.4224,0.0589,5.044-1.5153,2.4451,0.16501,3.9165,4.5,3.9407,3.0444,0.017,3.6752-1.972,1.261-3.9756-1.8449-1.5311-1.0544-3.0091,1.6092-3.0091,1.7984,0,1.9353-0.4463,1.3452-4.3818-1.0658-7.107,1.7532-7.1025,5.3576,0.01,1.1504,2.2697,2.8351,4.4119,3.7436,4.7606,1.2974,0.4978,1.5088,1.3967,0.98506,4.1884-0.61984,3.3041-0.44754,3.6374,2.4447,4.7291,2.4751,0.9342,2.9803,1.5856,2.4698,3.1848-1.4646,4.5889-1.0427,5.8283,2.2837,6.708,3.8939,1.0299,4.107,2.6487,0.76249,5.7907-3.0245,2.8414-1.8451,5.0117,2.7235,5.0117h2.9911l-0.76031,4.75c-1.3567,8.4759-0.52185,10.64,4.5332,11.75,1.574,0.3457,3.4026,1.2802,4.0636,2.0766,1.4854,1.7898,3.9364,0.1385,3.9364-2.652,0-1.5593,1.6954-6.4512,2.7255-7.8642,0.17629-0.2419,1.0286,0.5712,1.8941,1.8069,0.98109,1.4007,2.3844,2.1308,3.727,1.9391,2.1698-0.3097,2.376-1.3431,1.1055-5.5386-0.54419-1.797-0.0733-2.5769,2.415-4,1.7001-0.9723,3.5916-2.9727,4.2034-4.4455,1.7417-4.1929,4.7055-6.4578,6.7381-5.1492,1.7808,1.1465,1.9613,3.0374,0.72332,7.5801-0.68519,2.5143-0.47421,2.8084,2.4323,3.3897,2.7578,0.5515,3.1022,0.9568,2.5802,3.0364-0.35925,1.4313,0.0147,3.2809,0.92665,4.5828,0.84094,1.2006,1.529,2.8534,1.529,3.6729,0,0.8194,1.2222,2.4645,2.716,3.6556,2.4,1.9137,2.5835,2.4565,1.5773,4.6649-1.2961,2.8451-0.13222,4.745,2.9066,4.745,1.9919,0,2.3343,2.1331,0.80198,4.9963-1.1873,2.2185,1.045,5.0037,4.0104,5.0037,3.1089,0,3.3551,2.0069,0.59914,4.8835-2.0248,2.1135-2.3395,2.9885-1.4092,3.9188,0.65873,0.6587,1.9526,1.1977,2.8752,1.1977,2.4283,0,3.8097,2.1665,2.8691,4.5-1.263,3.1334-1.0759,7.941,0.38691,9.9415,1.2743,1.7427,1.425,1.7456,3.3879,0.065,1.6326-1.3979,1.9477-2.5541,1.5347-5.6327-0.41264-3.0764-0.1959-3.8737,1.0531-3.8737,2.1955,0,2.7353-1.2116,3.2262-7.2414,0.23544-2.8923,1.2517-8.1372,2.2582-11.655l1.8302-6.3968,2.188,2.7816c1.2034,1.5299,2.188,3.3409,2.188,4.0244s0.675,1.8029,1.5,2.4876,1.5,2.1798,1.5,3.3224c0,1.6159,0.26667,1.8109,1.2,0.8776,0.66-0.66,2.235-1.2,3.5-1.2,3.0169,0,2.9109-1.7529-0.30924-5.1141-2.7758-2.8973-2.4348-5.3521,0.60924-4.3859,2.9089,0.9232,3.1642-0.9972,0.46918-3.529-3.2392-3.043-3.1151-3.971,0.53082-3.971,3.1752,0,3.9266-1.6606,1.75-3.8674-1.0018-1.0157-0.86895-1.5485,0.66938-2.6841,1.7984-1.3274,1.8141-1.533,0.25-3.2614-2.2036-2.435-2.1087-2.9856,0.58062-3.3676,2.0362-0.2892,2.2175-0.7796,1.9084-5.1605-0.3002-4.2546-0.11853-4.7993,1.5-4.4971,1.0129,0.1892,2.6206,1.9176,3.5726,3.841,0.95208,1.9234,2.6896,4.2847,3.8612,5.2474,1.7103,1.4054,2.0047,2.4191,1.4936,5.1434-0.58344,3.11-0.38418,3.4809,2.3888,4.4476,3.2911,1.1473,3.6598,2.1698,1.8355,5.091-1.4332,2.2949,0.34681,5.0677,3.2533,5.0677,3.098,0,3.2758,2.0364,0.43657,5-3.1344,3.2716-2.6159,5,1.5,5,3.8179,0,4.4506,1.3189,3.0435,6.3446-1.9928,7.1176,0.11048,10.15,8.5006,12.256,1.7812,0.447,2.4559,0.2088,2.4559-0.867,0-1.7116,4.2941-2.8017,8.1139-2.0599,3.2626,0.6336,10.112,8.5742,9.2757,10.754-0.39829,1.0379,0.17618,1.8467,1.7164,2.4165,1.6748,0.6195,2.326,1.6584,2.3545,3.7564,0.0304,2.2313,0.55838,2.9738,2.2895,3.2196,2.583,0.3669,2.941,2.3621,0.75,4.1805-2.2725,1.8859-1.8064,3.001,1.25,2.9905,2.4829-0.01,2.9509-0.6156,4.8183-6.25,1.1596-3.4986,2.654-6.2405,3.4014-6.2405,0.73316,0,2.8774,2.25,4.7649,5,3.8342,5.5862,5.778,6.6109,6.7474,3.5568,0.35905-1.1312,1.0725-2.0568,1.5854-2.0568,0.51293,0,0.93261-0.5966,0.93261-1.3257,0-1.3634,4.7361-6.3483,5.3157-5.5949,1.2738,1.6556,4.6872,11.682,4.6996,13.804,0.0237,4.0564,1.2941,5.1886,6.0712,5.4111,5.8368,0.2719,5.9142-1.9723,0.16352-4.7439-2.3375-1.1266-4.25-2.6225-4.25-3.3242,0-1.6479,4.1903-3.2263,8.5651-3.2263,4.2417,0,4.3572-1.2071,0.3859-4.0349-3.6573-2.6042-3.4095-4.0896,0.86702-5.1978,3.9719-1.0292,4.0184-2.1602,0.18198-4.4264-4.1308-2.4401-3.7693-4.1943,1.0222-4.9605,2.2122-0.3537,4.2879-1.0731,4.6127-1.5987,0.32479-0.5255-0.20546-2.7207-1.1783-4.8781-1.4202-3.1494-1.5452-4.4137-0.63414-6.4132,2.2219-4.8765,6.6605-2.6962,10.308,5.0636,1.3844,2.9453,2.95,4.6269,4.9595,5.3275,3.8534,1.3433,4.6584,3.7494,2.508,7.4964-1.6627,2.897-1.6618,3.1022,0.0195,4.3316,0.97067,0.7097,3.4788,1.2905,5.5737,1.2905,4.5026,0,4.8012,1.2038,1.6313,6.5764-2.1144,3.5836-2.1233,3.7303-0.30887,5.0571,2.1864,1.5987,3.4296,1.6879,5.4781,0.3928,1.188-0.7511,1.2389-1.1958,0.25-2.1847-1.7826-1.7826-1.5659-2.3729,1.3605-3.7062,2.1138-0.9631,2.4845-1.6541,1.9754-3.6825-0.43715-1.7417-0.16561-2.6738,0.89789-3.0819,0.83852-0.3217,1.5246-1.1604,1.5246-1.8637,0-2.7557,7.6552-14.507,9.4503-14.507,1.3816,0,4.6835,9.7785,5.1689,15.308,0.41876,4.7699,0.98834,5.6922,3.5152,5.6922,1.6733,0,1.961,0.5503,1.691,3.2348-0.24575,2.4432,0.102,3.3174,1.4211,3.5726,1.2292,0.2378,1.5706-0.1204,1.1528-1.2093-0.75281-1.9617,3.519-7.4691,5.8507-7.5428,1.9151-0.061,2.3464-1.5687,0.73369-2.5654-1.4683-0.9075-0.18685-2.4899,2.0163-2.4899,2.5259,0,3.4579-1.7434,1.9216-3.5945-1.0392-1.2521-0.89039-1.6009,0.88079-2.0641,2.169-0.5672,3.7774-3.5943,2.7731-5.2192-0.30445-0.4926,0.11651-1.4517,0.93545-2.1314,0.81894-0.6796,1.489-1.8617,1.489-2.6268,0-1.8507,1.7855-4.9491,5.8554-10.161,2.9584-3.7886,3.4972-4.1031,4.5535-2.6585,1.0386,1.4204,1.7898,1.4801,5.6446,0.4492,6.5381-1.7487,7.1338-2.5343,6.7666-8.9243l-0.32004-5.5694,3.75-0.3104c4.4217-0.366,4.7545-1.8136,1.0887-4.7366-2.9876-2.3822-2.4771-4.453,1.0979-4.453,2.961,0,4.7654-2.0669,3.5215-4.0336-1.5825-2.5021-1.0585-3.9664,1.4194-3.9664,2.7395,0,5.3274-2.4463,3.671-3.47-1.855-1.1465-1.12-3.5404,1.4459-4.7095,1.3719-0.6251,3.3818-2.6404,4.4663-4.4785,1.2506-2.1196,2.7479-3.342,4.0935-3.342,1.9212,0,2.0578,0.3778,1.4458,4-0.60389,3.5743-0.45991,4,1.3531,4,2.7351,0,3.4773,1.4809,1.5456,3.084-1.4306,1.1873-1.4111,1.4337,0.20726,2.6171,1.3864,1.0138,1.5186,1.5743,0.5903,2.5026-1.9328,1.9328-1.394,2.7963,1.7447,2.7963,3.9588,0,4.5881,1.4233,1.5186,3.4345-2.7771,1.8196-2.3335,4.0273,0.65231,3.2465,3.1319-0.8191,3.0783,0.9812-0.10918,3.6632-3.7414,3.1482-3.7499,3.6558-0.0617,3.6558,1.6175,0,3.2284,0.465,3.5797,1.0335,0.64966,1.0511,4.4793-3.0244,4.4793-4.767,0-1.668,4.9902-5.6814,5.848-4.7033,1.3993,1.5957,3.948,9.6995,4.6351,14.738,0.51023,3.7413,1.1559,4.9915,2.9252,5.6642,1.7856,0.6789,2.1845,1.4689,1.868,3.699-0.29806,2.1002,0.15652,3.1772,1.7523,4.1516,1.8604,1.136,2.349,1.0677,3.577-0.5,0.78221-0.9987,1.2227-2.9407,0.97895-4.3157-0.24379-1.375-0.58754-3.3607-0.76389-4.4126-0.23881-1.4243,0.4963-2.1303,2.8801-2.7658,4.4735-1.1926,4.8548-2.4376,1.6071-5.2465-2.9842-2.5811-2.8697-2.7372,2.9421-4.0107,2.9235-0.6406,3.6857-3.2288,1.573-5.3415-0.90273-0.9027-0.32605-1.5326,2.4744-2.7027,3.2768-1.3692,3.592-1.823,3.0722-4.4223-0.4659-2.3295-0.17694-3.0243,1.4759-3.5489,1.1304-0.3588,2.9867-2.1594,4.1251-4.0015,3.6201-5.8574,7.5429-5.8014,6.4373,0.092-0.56202,2.9959-0.35632,3.5613,1.4693,4.0387,2.4339,0.6365,2.6424,1.3972,0.87283,3.1841-1.0013,1.0112-0.89076,1.465,0.55545,2.2808,1.3978,0.7884,1.5477,1.329,0.66391,2.3939-1.5541,1.8726-0.36481,3.4631,2.5897,3.4631,2.9539,0,3.2948,2.5434,0.44098,3.2897-1.1,0.2877-2,1.0152-2,1.6166,0,1.3988,1.6803,1.4199,2.5381,0.032,0.36089-0.5839,1.7374-1.4727,3.059-1.9752,1.8062-0.6867,2.4029-1.6646,2.4029-3.9383,0-1.6636,0.45-3.0247,1-3.0247s1-0.7171,1-1.5934c0-2.0715,8.1066-14.407,9.468-14.407,0.57409,0,1.6331,1.4625,2.3534,3.25,0.72029,1.7875,1.7301,4.0313,2.2441,4.9864,0.51397,0.955,0.9345,3.0557,0.9345,4.6682,0,4.7894,0.93683,6.0967,4.357,6.0801,1.7286-0.01,3.818-0.4699,4.643-1.0254,1.2458-0.8388,0.83857-1.5782-2.4035-4.3634-4.5033-3.8687-4.4135-6.5959,0.21714-6.5959,5.466,0,6.9724-3.5896,5.0302-11.986-0.2455-1.0614,0.7774-1.6331,3.578-2,4.7733-0.6253,5.5676-2.3194,2.1403-4.565-3.0836-2.0205-3.3546-4.4487-0.4964-4.4487,1.1362,0,2.9419-0.4689,4.0128-1.042,1.5943-0.8533,1.7496-1.4108,0.8572-3.0782-1.4481-2.7057-0.5807-4.6506,2.2532-5.0523,1.9521-0.2767,2.2625-0.8312,1.9981-3.5703-0.2489-2.5786,0.1607-3.4651,2-4.3286,1.2722-0.5972,3.2223-2.5129,4.3337-4.2572,1.1552-1.8131,2.8684-3.1714,4-3.1714,1.6727,0,1.9339,0.5809,1.686,3.75-0.2175,2.7807,0.09,3.75,1.191,3.75,2.0493,0,3.0618,1.9404,1.7152,3.2871-2.0196,2.0195-1.1643,2.8379,2.6371,2.5232,2.9065-0.2405,3.6938-0.704,3.5-2.0603-0.1375-0.9625-0.3625-2.5373-0.5-3.4996-0.1713-1.1985,0.5374-1.855,2.25-2.0846,3.4808-0.4667,4.3675-1.6106,3.0936-3.991-0.9321-1.7416-0.651-2.3538,1.9224-4.1862,1.6578-1.1805,3.7084-3.4887,4.5568-5.1295,1.1185-2.1629,2.1454-2.8973,3.7349-2.6711,2.2556,0.321,2.7129,2.5472,1.2366,6.0201-0.5508,1.2956-0.1004,1.8652,1.8648,2.3584,3.0337,0.7614,3.1922,1.2733,0.9107,2.9416-1.5372,1.124-1.4876,1.3317,0.5829,2.4398,2.1624,1.1573,2.1858,1.2968,0.5253,3.1316-1.6784,1.8546-1.6319,1.9205,1.358,1.9205,3.9395,0,5.0443,1.7301,2.3224,3.6366-2.8309,1.9828-2.6735,3.5433,0.2825,2.8014,3.4233-0.8592,4.2204,1.2823,1.5396,4.136l-2.2791,2.426h3.0523c1.9451,0,3.55-0.7339,4.4243-2.023,0.7546-1.1127,2.4204-2.2188,3.7019-2.458,6.5523-1.2232,8.5065-4.1401,6.4406-9.6133-1.3132-3.4792-0.025-4.9057,4.4295-4.9057,3.986,0,4.4006-2.073,0.8-4-3.2894-1.7605-3.177-3.8136,0.25-4.5645,5.0797-1.1131,5.4848-1.3859,4.7427-3.194-1.3071-3.1843-1.0132-4.6608,1.0073-5.0608,3.2872-0.6508,4.7021-2.2322,3.4005-3.8007-1.3733-1.6546-0.4802-4.38,1.4352-4.38,0.7692,0,2.5897-1.8,4.0456-4,1.6741-2.5297,3.4093-4,4.7208-4,1.8653,0,2.0058,0.40202,1.3979,4-0.5935,3.5132-0.442,4,1.2454,4,2.9001,0,3.4489,1.1278,1.5629,3.2117-1.6063,1.775-1.5799,1.9045,0.4979,2.4478,2.4783,0.6481,2.7247,1.4096,1.0105,3.1238-1.7415,1.7415-0.6709,2.2295,3.4305,1.564,2.8394-0.4608,3.8582-1.2108,4.6224-3.4031,1.6683-4.7856,10.732-17.403,14.646-20.388,2.0462-1.5607,6.0065-3.7063,8.8007-4.768,4.9409-1.8774,5.2696-1.8813,11.973-0.14273,5.8128,1.5076,7.7462,2.608,12.342,7.0242,5.3669,5.1567,9.1154,6.2602,7.8631,2.3148-0.6705-2.1127,8.4134-11.984,11.028-11.984,1.3647,0,1.5389,0.6739,0.9996,3.8663-0.5794,3.4296-0.4014,3.9322,1.5765,4.4494,1.951,0.51019,2.0577,0.79049,0.8531,2.2419-1.1886,1.4322-1.1159,1.8495,0.5318,3.0544,1.4811,1.083,1.6406,1.6634,0.7123,2.5918-1.9415,1.9415-1.3902,2.7962,1.8037,2.7962,3.5383,0,3.8477,1.1932,0.8293,3.1973-2.5245,1.6762-1.6326,4.1924,1.1707,3.3027,3.1689-1.0058,3.1866,1.3022,0.028,3.6375-1.6653,1.2312-3.0278,2.6039-3.0278,3.0505,0,1.2728,4.6001,0.952,8.2161-0.5729,1.8061-0.7617,4.6146-1.7782,6.2409-2.259,3.4922-1.0323,4.6362-4.3003,3.1875-9.1053-1.1584-3.8424-0.7691-4.3822,3.5196-4.8816,4.8197-0.56117,5.3835-1.8431,1.9012-4.3228-3.5462-2.5251-3.304-3.6155,1.0137-4.5638,3.4771-0.7637,4.7071-2.8305,2.9468-4.9516-1.5943-1.9208-0.466-3.5311,2.474-3.5311,2.8173,0,4.1825-1.7175,2.6129-3.2871-1.7164-1.7164-1.3236-3.5112,0.9246-4.2248,1.1206-0.35567,3.1692-2.4394,4.5525-4.6306,3.2342-5.1234,6.0403-4.9678,5.6311,0.31224-0.2447,3.1585,0.044,3.6801,2.3623,4.2619,2.5877,0.64947,2.6039,0.704,0.7997,2.6976-1.7703,1.9561-1.7718,2.0738-0.039,3.0433,1.7095,0.95667,1.7133,1.1068,0.074,2.918-1.7971,1.9858-1.264,2.3699,2.7434,1.9767,2.8162-0.2763,3.0365,1.7569,0.3791,3.4982-2.9286,1.9189-2.4791,3.4346,1.0185,3.4346,3.123,0,3.1024,1.3346-0.059,3.8213-3.3405,2.6276-3.1549,4.1787,0.5,4.1787,3.2868,0,3.8229,1.0722,1.5,3-1.7845,1.481-1.9481,3.605-0.3536,4.5904,0.6305,0.3897,3.6355,0.6272,6.6777,0.5278,4.2752-0.1397,5.851-0.637,6.9386-2.1899,0.9028-1.2888,2.0637-1.8008,3.2381-1.4281,2.3869,0.75757,3.3963-0.92583,1.4992-2.5003-1.9426-1.6122-0.9901-3,2.059-3,2.5289,0,3.2214-1.8196,1.3897-3.6514-0.7352-0.73513-0.2806-1.5564,1.5113-2.7305,1.9477-1.2761,2.4222-2.2394,1.977-4.0131-0.4075-1.6236-0.086-2.5259,1.0576-2.9646,1.1114-0.42649,1.4373-1.2796,1.007-2.6355-0.3531-1.1125-0.1821-2.0049,0.3841-2.0049,0.5613,0,1.7907-1.6875,2.7321-3.75,2.859-6.2636,7.3822-10.391,7.3822-6.7364,0,0.83246,0.45,2.4075,1,3.5s1.45,2.8803,2,3.9729c0.55,1.0925,1.0069,3.68,1.0153,5.75,0.017,4.2461,0.6992,5.6195,3.2593,6.5646,1.2984,0.47935,1.6111,1.3064,1.1652,3.0829-0.8175,3.2572,2.0908,7.6162,5.0816,7.6162,1.7426,0,2.1747-0.44604,1.8044-1.8623-0.3357-1.2834,0.1597-2.0314,1.5936-2.4064,1.5216-0.39791,2.0806-1.3465,2.0806-3.5307,0-1.7906,0.6283-3.2277,1.569-3.5887,1.0427-0.40014,1.3555-1.2745,0.9326-2.607-0.3531-1.1125-0.1821-2.0049,0.3841-2.0049,0.5613,0,1.7907-1.6875,2.7321-3.75,1.8044-3.9531,5.1957-8.25,6.5112-8.25,0.4292,0,1.0844,1.6875,1.4561,3.75,0.3716,2.0625,1.1104,4.2984,1.6417,4.9686,0.5312,0.67022,1.1627,3.3252,1.4033,5.9,0.2405,2.5748,0.6706,5.0589,0.9557,5.5203,0.7489,1.2117,5.2274-1.9748,5.9426-4.2284,0.378-1.191,1.5226-1.9105,3.039-1.9105,2.8514,0,3.0286-0.68393,0.8117-3.1335-1.515-1.6741-1.3519-2.0494,2.4975-5.7479,3.4526-3.3172,4.3209-4.9788,5.3709-10.278,1.0525-5.3113,1.6917-6.5308,4.0025-7.6354,1.5125-0.72297,2.75-2.0484,2.75-2.9455,0-0.89705,0.984-2.6784,2.1868-3.9587,1.6872-1.796,1.9156-2.5988,1-3.5144-1.7177-1.7177-1.4726-2.4788,1.007-3.1272,2.1098-0.5517,2.1261-0.64856,0.427-2.5261-1.6972-1.8754-1.6835-1.9788,0.348-2.6236,1.4868-0.47191,1.9418-1.2161,1.5323-2.5064-0.3203-1.0094-0.083-2.1436,0.5264-2.5205,0.6099-0.37692,0.8799-1.2819,0.6001-2.011-0.2798-0.72915,0.077-1.8115,0.792-2.4052,0.7196-0.59725,1.0877-2.1934,0.8239-3.5731-0.6321-3.3068,1.6916-3.3035,4.5696,0.006,1.1955,1.375,2.6549,2.5,3.2431,2.5,0.5883,0,0.9287,1.0125,0.7567,2.25-0.2326,1.6723,0.2468,2.3297,1.8671,2.5604,1.6788,0.23902,2.1386,0.92848,2,2.999-0.1402,2.0941,0.3175,2.7595,2.07,3.0092,2.6712,0.38057,2.7814,0.93675,0.652,3.2897-2.1208,2.3435-0.9245,4.061,2.2702,3.2592,2.4747-0.62112,2.5314-0.52576,1.9281,3.2463-0.6639,4.1511,0.4626,7.0834,2.2879,5.9554,0.6115-0.37792,1.1118-1.5606,1.1118-2.6281s0.45-1.941,1-1.941,1-0.8449,1-1.8776c0-1.0326,0.675-2.4378,1.5-3.1224,0.825-0.68469,1.5-1.7623,1.5-2.3946,0-0.63234,1.4132-2.8641,3.1403-4.9595,2.3528-2.8543,3.3499-3.4758,3.9758-2.4778,0.9932,1.5833,3.4428,9.7211,4.6152,15.332,0.6442,3.083,1.3562,4.0749,3.106,4.3266,1.7746,0.25531,2.2274,0.91009,2.0744,3-0.3052,4.1679,1.1062,7.1398,3.7001,7.7908,1.9163,0.48095,2.2573,1.0561,1.7721,2.9891-0.4935,1.9661-0.2186,2.3935,1.5391,2.3935,1.1769,0,2.419-0.7875,2.7604-1.75,0.3413-0.9625,1.2234-2.4563,1.9603-3.3195,0.7368-0.86324,1.761-3.7882,2.2761-6.5,1.1881-6.2554,2.7697-10.43,3.9512-10.43,0.5063,0,2.4152,2.3625,4.2419,5.25,4.9692,7.8544,6.5358,8.2427,8.9041,2.2067,1.2646-3.2232,5.6018-8.3229,6.2742-7.3773,0.7495,1.0541,4.7966,13.7,4.6437,14.511-0.6213,3.2918,0.3062,5.5511,2.6434,6.4397,2.2266,0.84654,2.4886,1.3889,1.9206,3.9752-0.3752,1.7084-0.2442,2.995,0.305,2.995,0.5296,0,1.1982,0.9,1.4858,2,0.6666,2.5489,4.7103,2.7554,4.7103,0.24055,0-0.9677,0.9-2.3215,2-3.0085,1.2491-0.78007,2-2.332,2-4.1336,0-1.627,0.6466-3.1327,1.4831-3.4537,0.8158-0.31302,1.2453-1.1891,0.9545-1.9468-0.2907-0.7577,0.1669-1.9548,1.0169-2.6603,0.85-0.70546,1.5455-1.8651,1.5455-2.5769,0-0.71182,0.3375-1.4442,0.75-1.6276,0.4125-0.18333,1.5091-1.6833,2.437-3.3333,0.9278-1.65,2.2124-3,2.8546-3,1.1512,0,6.0993,11.756,5.8498,13.898-0.7109,6.1038,1.7712,7.33,5.2667,2.602,1.352-1.8287,3.1207-3,4.53-3,2.3682,0,3.1001-1.3948,1.3119-2.5-1.6034-0.99098-1.1539-2.4986,0.75-2.5153,0.9625-0.008,2.3961-0.42413,3.1857-0.92379,1.2039-0.76177,1.2198-1.1686,0.099-2.5194-1.1414-1.3753-1.0123-1.9134,0.8821-3.6783,1.2205-1.1371,1.9903-2.6635,1.7107-3.3922-0.2796-0.72862,0.1399-1.8628,0.9322-2.5203,0.7923-0.65756,1.4406-1.8455,1.4406-2.6398,0-0.79435,1.125-2.9192,2.5-4.7219s2.5-3.7192,2.5-4.259c0-0.53971,1.0417-1.9599,2.3149-3.156l2.3149-2.1748,2.1131,6.2504c1.1621,3.4377,2.4002,7.9878,2.7512,10.111,0.4376,2.6478,1.2458,4.0198,2.572,4.3666,1.3739,0.35927,1.9339,1.3812,1.9339,3.5288,0,2.9664,2.2298,5.6477,4.75,5.7118,1.7437,0.0444,1.5626-2.4639-0.2889-4.0005-1.3602-1.1289-1.2351-1.5942,1.0779-4.0085,1.6907-1.7648,3.297-2.5534,4.5389-2.2287,2.1214,0.55476,2.5409-0.71183,0.8092-2.4435-1.5822-1.5822-0.1964-3.2871,2.6719-3.2871,2.6688,0,3.0947-0.94632,1.2542-2.7868-0.9156-0.91567-0.6872-1.7184,1-3.5144,1.2028-1.2802,2.1868-3.263,2.1868-4.4062s0.7035-2.3485,1.5634-2.6785c0.8598-0.32996,1.302-1.0228,0.9826-1.5396s0.3232-2.4325,1.4281-4.2571c1.1048-1.8246,2.306-3.9924,2.6693-4.8174,0.9456-2.1471,3.5198-5,4.5116-5,0.4647,0,0.845,0.675,0.845,1.5,0,1.721,1.2693,1.91,3.7636,0.5604,0.955-0.51678,2.9682-1.1989,4.4738-1.5159,1.5055-0.31696,3.4585-1.677,4.34-3.0224,1.3298-2.0295,1.405-3.0454,0.4416-5.9646-1.464-4.4359-0.7614-5.5576,3.481-5.5576,5.4857,0,5.4862-1.6536,0-5.4523-2.3992-1.6617-1.7113-2.547,2.6977-3.4718,3.2662-0.68511,3.8232-1.9239,2.6938-5.9915-0.2566-0.9242,0.7352-1.6615,2.8569-2.1237l3.25-0.708v387.74h-1564l0.1555-195.25zm762.86,86.75c0-0.825-0.675-1.5-1.5-1.5s-1.5,0.675-1.5,1.5,0.675,1.5,1.5,1.5,1.5-0.675,1.5-1.5zm-68.677-27.25c0.24278-0.4125,0.77182-2.325,1.1756-4.25l0.73423-3.5-2.6166,2.4243c-2.8324,2.6242-3.5003,6.0757-1.1757,6.0757,0.79254,0,1.6396-0.3375,1.8824-0.75zm174.34-21.75c0.26137-0.8162-3.4198-3.642-6.916-5.3091-1.0356-0.4938-0.93806,1.1842,0.25049,4.3103,0.7905,2.0792,1.5614,2.5651,3.6729,2.3151,1.4698-0.174,2.8165-0.7663,2.9926-1.3163zm-210.86-1.575c-0.19708-0.5913-0.78583-1.075-1.3083-1.075-0.5225,0-1.1112,0.4837-1.3083,1.075-0.19709,0.5912,0.39166,1.075,1.3083,1.075,0.91667,0,1.5054-0.4838,1.3083-1.075zm250-17c-0.19708-0.5913-0.78583-1.075-1.3083-1.075-0.5225,0-1.1112,0.4837-1.3083,1.075-0.19709,0.5912,0.39166,1.075,1.3083,1.075,0.91667,0,1.5054-0.4838,1.3083-1.075zm-428.81-65.925c0-0.55-0.70156-1-1.559-1-0.85746,0-1.2809,0.45-0.94098,1s1.0415,1,1.559,1c0.51754,0,0.94098-0.45,0.94098-1zm-81.187-7.75c0.35669-3.6995-0.6052-4.0489-3.8693-1.4058-2.8495,2.3074-2.0278,5.4487,1.3015,4.9759,1.7294-0.2456,2.3274-1.077,2.5678-3.5701zm-41.918-0.1644c1.8267-1.1567,0.8402-3.5573-2.3099-5.6214-1.9009-1.2455-3.2066-1.424-5.3037-0.7249-4.278,1.426-3.6575,4.4328,1.2179,5.9018,5.0254,1.5141,4.738,1.4941,6.3957,0.4445zm847.1-2.4787c0-1.6955-2.7044-2.8942-3.527-1.5633-0.3251,0.526-0.3129,1.4064,0.027,1.9564,0.924,1.4951,3.5,1.2058,3.5-0.3931zm50.75-2.2372c3.1184-0.8357,2.8193-3.0278-0.4997-3.6622-2.6789-0.5121-8.2503,1.8569-8.2503,3.5081,0,0.9225,5.52,1.0197,8.75,0.1541zm-895.75-4.6845c0-2.1638-6.7473-4.8909-9.0507-3.6581-2.1998,1.1773-2.5846,3.5498-0.6993,4.3106,2.782,1.1225,9.75,0.6562,9.75-0.6525zm895.46-2.6238c1.0261-1.6603-2.6388-2.938-5.148-1.7947-1.2727,0.5798-2.314,1.4321-2.314,1.8938,0,1.1544,6.7427,1.0649,7.462-0.099zm-961.46-18.061c0-0.55-0.4765-1-1.059-1s-0.7809,0.45-0.441,1,0.8165,1,1.059,1c0.2426,0,0.441-0.45,0.441-1zm1184-11c0-0.55-0.1984-1-0.441-1-0.2425,0-0.7191,0.45-1.059,1s-0.1415,1,0.441,1c0.5824,0,1.059-0.45,1.059-1zm-1321-3c2.7054-2.7053,2.5165-3.3444-0.75-2.5376-3.3831,0.83555-4.6883,2.0194-3.8038,3.4505,0.9883,1.5992,2.3059,1.335,4.5538-0.91287zm1.5691-6.1118c0.9757-1.5787-1.7311-2.9986-3.2745-1.7177-0.6999,0.58086-1.026,1.4551-0.7245,1.9428,0.7673,1.2416,3.1764,1.106,3.999-0.22511zm1358.4-5.8882c0-0.55-0.675-1-1.5-1s-1.5,0.45-1.5,1,0.675,1,1.5,1,1.5-0.45,1.5-1zm-1394.5-3.77c0.9664-1.5637-0.573-4.0902-2.4922-4.0902-2.6026,0-3.2403,1.5688-1.3897,3.4194,1.786,1.786,3.057,2.0057,3.8819,0.67086zm81.556-5.6736c0-0.87084-0.5344-1.4052-1.1875-1.1875-1.8542,0.61807-2.1617,2.7708-0.3958,2.7708,0.8708,0,1.5833-0.7125,1.5833-1.5833zm1344.5-30.258c0-0.73791-1.9125-2.4711-4.25-3.8515-4.6108-2.723-5.2578-2.0878-3.2506,3.1915,0.8386,2.2059,1.522,2.5781,4.25,2.3151,1.8965-0.18286,3.2506-0.87229,3.2506-1.6551zm-1540.5-32.658c0-1.5892-3.5123-2.0981-4.4138-0.63948-0.7384,1.1949,0.4009,2.1395,2.5805,2.1395,1.0083,0,1.8333-0.675,1.8333-1.5zm1556-13.941c0-0.79254,0.45-1.7191,1-2.059,0.55-0.33992,1,0.30852,1,1.441s-0.45,2.059-1,2.059-1-0.64844-1-1.441zm-1561.5-0.55902c-0.3399-0.55-0.1415-1,0.441-1s1.059,0.45,1.059,1-0.1984,1-0.441,1c-0.2425,0-0.7191-0.45-1.059-1z"/>
  <path id="path3133" fill="#b9ebe2" d="m-1390.6,838.34-0.062,170.75-0.031,170.75c36.932-0.01,72.731,0.1664,107.53,0.5h809.56c-51.687-28.338-112.25-65.084-179.22-112.19-61.059-3.723-12.122-7.6874-14.156-7.6874-2.6966,0-5.7658-11.743-5.0938-14.313,0.4003-1.5307-0.0435-2.195-1.6875-2.625-1.7111-0.4474-2.0776-1.082-1.625-2.8124,0.40205-1.5376-0.11142-2.9078-1.625-4.375-1.2117-1.1747-2.666-2.9765-3.25-4-1.4788-2.5915-3.7742-0.9908-3,2.0937,0.48665,1.9389,0.22534,2.4063-1.4375,2.4063-1.1277-0.0001-2.3138-0.658-2.625-1.4688-0.78195-2.0377-2.8868,0.09-3.5625,3.625-0.3698,1.9345-0.14057,2.5027,0.84375,2.125,0.86617-0.3324,1.3438,0.2511,1.3438,1.625,0,2.6821-3.9012,4.2817-9.4375,3.875l-4.0625-0.2812,0.25-4.9688c0.24288-4.5714,0.14698-4.8062-1.2188-3-0.81493,1.0778-1.4825,4.1063-1.5,6.7188l-0.0312,4.75h-6c-5.3333,0-6-0.2223-6-2,0-1.3881-0.67517-2-2.1875-2-1.2385,0-3.6519-1.6301-5.5938-3.75-3.2757-3.5763-3.4657-3.6544-4.8125-1.8126-0.77255,1.0566-1.4062,2.7552-1.4062,3.75,0,0.9949-0.675,1.8126-1.5,1.8126s-2.4,0.9-3.5,2c-2.6662,2.6662-13,2.936-13,0.3437,0-0.9019-0.74189-2.1752-1.6562-2.8437-2.1637-1.5822-1.1361-4.2601,2.125-5.5,1.7324-0.6587,2.5312-1.729,2.5312-3.375,0-1.3199,0.28125-3.7814,0.625-5.5,0.58571-2.9287,0.9-3.125,5-3.125,2.4062-0.0001,4.375-0.4258,4.375-0.9376,0-0.5117,1.0125-1.1366,2.25-1.375,1.6458-0.3169,1.3828-0.4625-0.96875-0.5624-3.5624-0.151-4.7298-1.635-5.8125-7.4063-0.38503-2.0524-1.0683-3.7187-1.5312-3.7187-1.1116-0.0001-2.9627,6.7744-2.3125,8.4687,0.27949,0.7284,0.025,1.6057-0.5625,1.9687-0.58749,0.3632-1.0625,1.7825-1.0625,3.125s-0.5625,2.4376-1.25,2.4376c-0.74004,0-1.3224,1.5174-1.4375,3.7187-0.10694,2.0451-0.89444,4.2181-1.75,4.8437-0.85556,0.6257-1.5625,1.6544-1.5625,2.2813,0,2.0559-4.8559,1.2545-6.0625-1-2.0993-3.9226-2.8025-7.8276-1.9375-10.844,0.81542-2.8433,0.65217-3.0732-3.5625-4.9376-4.9425-2.1862-4.8191-1.9597-3.4375-5.5937,0.81475-2.1429,0.62387-3.1231-1-5.1875-2.1806-2.7723-2.6077-5.7996-0.96875-6.8125,0.59488-0.3677-0.14782-1.5376-1.75-2.75-1.5309-1.1585-2.9575-2.2327-3.1875-2.4063-0.23-0.1734,0.20384-1.5082,0.96875-2.9374,1.2967-2.423,1.1948-2.7133-1.3438-4.5625-1.5962-1.1628-2.7188-2.9358-2.7188-4.2812,0-1.262-1.0125-2.9729-2.25-3.8125-1.8113-1.229-2.0063-1.801-1-2.8438,1.8341-1.9006,1.5462-2.5872-1.3438-3.3125-2.465-0.6187-2.5417-0.8799-1.9062-5.5,0.39871-2.8989,0.25288-5.1-0.34375-5.4688-1.212-0.749-3.6948,1.6112-5.625,5.3438-0.78407,1.5162-2.5792,3.4958-3.9688,4.4062-2.2054,1.445-2.3724,1.9732-1.4062,4.0938,1.8787,4.1234,0.42397,5.8936-4.1875,5.1562l-3.9688-0.625v3.9375c0,3.0899-0.59796,4.3943-2.7188,6.0625-1.7066,1.3425-2.7208,3.1108-2.75,4.8125-0.0409,2.3845-0.45725,2.7564-3.7812,3.0312-4.7892,0.3962-5.8668-1.7971-2.875-5.8437,1.1741-1.5881,2.125-3.2882,2.125-3.75,0-1.6178-6.8188-3.3962-8.8438-2.3125-1.545,0.8268-2.3836,0.4728-4.5312-1.9375-1.9738-2.2153-3.5148-2.9688-6.125-2.9688-3.0584,0-3.5,0.3105-3.5,2.5,0,1.4618-0.56607,2.5-1.375,2.5-0.76085,0-1.7276,1.0125-2.125,2.25-0.61198,1.9055-0.79173,1.982-1.1875,0.5-0.2824-1.0575-1.4086-1.75-2.875-1.75-1.9218,0-2.4375,0.5201-2.4375,2.5,0,1.375,0.45,2.5,1,2.5,1.8174,0,1.0363,2.1632-0.96875,2.6874-1.0818,0.283-2.2128,1.2532-2.5,2.1563-0.28714,0.9032-1.6273,2.8644-3,4.3437-5.0309,5.4223-6.4612,9.6561-6.9062,20.625-0.22992,5.6672-0.65512,10.561-0.96875,10.875-0.31362,0.3137,0.0686,2.0824,0.84375,3.9376,1.5969,3.8217,0.81048,4.2532-2.625,1.4374-2.043-1.6743-2.2067-2.2246-1.125-4,0.6875-1.1284,1.25-3.63,1.25-5.5624,0-2.7405-0.41383-3.5-1.8438-3.5-1.0083,0-1.832-0.5626-1.8438-1.25-0.0118-0.6875-0.58115-3.8376-1.25-7l-1.2188-5.75h-3.9062c-2.816,0-3.9375,0.3997-3.9375,1.4687,0,0.8203-0.9,2.0631-2,2.75-1.1,0.687-2,2.2277-2,3.4063,0,1.3018-0.78495,2.3385-2,2.6562-1.3515,0.3534-2,1.3724-2,3.125,0,2.0999-0.47594,2.5938-2.5,2.5938-1.375,0-2.5-0.4501-2.5-1,0-0.5501,0.9-1,2-1,1.4926,0,2-0.664,2-2.625,0-2.4756-0.21742-2.6217-3.75-2.0626-3.4604,0.5478-3.943,0.3451-6.0625-2.9062-2.0311-3.1157-2.6944-3.4907-5.9375-3.2188-3.2765,0.2748-3.7625,0.6687-4.375,3.6876-0.37709,1.8586-1.1365,3.6585-1.6875,4-0.551,0.3413-1.3274,2.7625-1.7188,5.375-0.39137,2.6125-1.125,4.75-1.6562,4.75-0.54661,0-0.70588,1.2575-0.34375,2.9062,0.52182,2.3759,0.27402,3.0292-1.4062,3.5625-1.1442,0.3631-2.0625,1.5204-2.0625,2.5937,0,1.6912-0.72668,1.9376-5.875,1.9376-4.9787,0-5.9776-0.2982-6.4062-1.9376-0.38542-1.4737-1.5264-2.0118-4.8438-2.25-4.1122-0.2949-4.392-0.4972-4.6875-3.5624-0.17235-1.7875-0.84735-3.2813-1.5-3.2813s-1.9813-1.3511-2.9375-3.0313c-1.5239-2.6777-2.2029-3.0226-5.5-2.75-3.5595,0.2944-3.7688,0.5138-4.0625,4.0626-0.1707,2.0624-0.76324,3.75-1.3125,3.75-0.54927,0-0.75859,0.3748-0.46875,0.8437,0.28984,0.469-0.11636,1.7065-0.90625,2.75-0.78989,1.0436-1.4512,2.6937-1.4688,3.6563-0.0267,1.4686-0.99575,1.75-6.0312,1.75-5.3333,0-6-0.2223-6-2,0-1.1-0.45-2-1-2-1.4009,0-1.2634-4.3616,0.1875-5.8126,0.93333-0.9334,0.6-1.1874-1.5-1.1874-1.485,0-2.6875,0.45-2.6875,1s-0.79326,1-1.7812,1c-1.53,0-1.82-0.9269-1.875-6.25-0.0915-8.854-1.1603-12.75-3.4688-12.75-1.4893,0-1.875-0.737-1.875-3.5,0-2.7646-0.38314-3.5-1.875-3.5-1.3668,0-2.0873-0.9673-2.5625-3.5-0.38662-2.0609-1.2523-3.5-2.0938-3.5-0.78596,0-2.1155-1.35-2.9688-3-1.3391-2.5896-2.1038-3-5.625-3h-4.0938l0.375,4c0.34398,3.6069,0.17774,4-1.875,4-2.0496,0-2.2812,0.4646-2.2812,4.75,0,3.6764-0.4551,5.0352-2,6-1.4573,0.91-2,2.3415-2,5.25,0,2.8813-0.4172,4-1.5,4-2.3162,0-1.7931,3.7739,0.9376,6.7187,1.3455,1.4512,2.1514,3.1314,1.7812,3.7187-0.4041,0.6413-0.823,0.3633-1.0312-0.6874-0.5699-2.8757-4.6163-2.1856-5.875,1l-1.0938,2.75-0.125-3.25c-0.058-1.7875-0.5438-3.25-1.0938-3.25s-1-1.35-1-3c0-2.3678-0.4275-3-2.0624-3-2.9246,0-4.7478-2.1793-5.125-6.125-0.2759-2.8849-0.7709-3.4394-3.3126-3.875-2.7986-0.4797-5.0508-4-2.5624-4,0.5903,0,1.0624,0.6749,1.0624,1.5,0,0.9332,0.9445,1.5,2.5,1.5,2,0,2.5-0.5,2.5-2.5,0-1.5556-0.5666-2.5-1.5-2.5-0.825,0-1.5-0.675-1.5-1.5,0.0001-0.825-0.6495-1.5-1.4374-1.5-1.46,0-1.9051-0.9993-3.0626-6.75-0.4652-2.3115-1.2278-3.25-2.5937-3.25-1.3646,0-1.9063-0.7193-1.9063-2.4376,0-3.4521-0.9814-5.5625-2.5937-5.5625-0.9585,0-1.4063-1.2476-1.4063-4,0-3.5485-0.2591-4-2.375-4-1.4405,0-3.0418-0.99-4.0312-2.5-2.2936-3.5008-7.208-3.4902-8.8125,0.0312-1.0286,2.26-1.6475,2.5135-5.625,2.25-3.944-0.2613-4.7218-0.69395-6.4063-3.7188-1.8817-3.379-1.9288-5.4182-0.1874-12.469,0.9969-4.0365-1.1906-5.456-7.5626-4.8438-6.4656,0.6212-6.5769-0.866-0.4687-6.6875,5.8715-5.5959,5.5862-7.48-1.2187-7.875-6.8704-0.3987-7.9017-1.8058-5.125-6.875,2.9942-5.4664,2.0574-7.3125-3.6563-7.3125-4.5649,0-5.8198-1.3364-3.4687-3.6875,0.59-0.5901,0.9275-2.5816,0.75-4.4375-0.2584-2.6999-0.9837-3.6807-3.6563-4.9375-2.1894-1.0296-4.2565-3.2982-6-6.5312-1.9921-3.6939-3.3135-4.9936-5.25-5.2188-4.1147-0.4783-5.4006,1.944-3.9063,7.2812,1.45,5.1787,0.8676,7.5312-1.875,7.5312-5.6035,0-6.7997,3.0826-2.125,5.5,3.8674,1.9998,3.7941,3.2334-0.25,4.2812-4.3244,1.1206-4.6894,3.6827-0.8124,5.6875,4.1163,2.1287,3.8504,3.0603-0.9063,3.25-4.0398,0.161-8.0315,1.7196-8.0315,3.125,0.0001,0.4284,2.0651,2.329,4.594,4.2188l4.5938,3.4375-5.0938,0.28125c-4.1323,0.245-5.094,0.6645-5.094,2.125,0,1.9694,3.0804,5.6044,7,8.2812,2.1187,1.4469,2.2724,1.8775,1,2.75-3.931,2.696-14.622-0.45505-13.687-4.0312,0.2809-1.0749-0.5272-3.0057-1.9376-4.625-1.3341-1.5318-2.8814-3.3438-3.4374-4.0312-0.5561-0.6875-1.8905-1.25-2.9689-1.25-1.5649,0-1.9688,0.67915-1.9688,3.4062,0,1.8792-0.5544,3.5911-1.2187,3.8125-0.6642,0.2214-1.3037,2.1276-1.4375,4.2188-0.1608,2.5136-0.9495,4.2953-2.3125,5.25-1.4939,1.0465-1.8082,1.8662-1.1563,3.0312,0.6764,1.2085,0.026,2.4376-2.625,4.9375-1.9397,1.8294-3.0019,3.3438-2.375,3.3438,0.627,0,1.125,1.3022,1.125,2.9062,0,1.6042,0.5626,3.1288,1.25,3.4062,0.6876,0.2774,0.061,0.55075-1.4062,0.59375-1.4675,0.0434-3.38,0.3536-4.25,0.6875-1.2416,0.4764-1.5938-0.0841-1.5938-2.625v-3.25l-4.5312,0.53125c-2.4837,0.2799-4.7325,0.1084-5.0311-0.375-0.2988-0.4834,0.2001-0.875,1.125-0.875,1.268,0,1.4091-0.3301,0.5936-1.3125-0.7861-0.9472-0.6857-2.0806,0.375-4.125,2.7263-5.2549,1.5837-6.5625-5.6563-6.5625-5.0729,0-5.9619-2.0871-3.0624-7.125,2.9933-5.201,2.0822-7.0341-3.4063-6.75-2.3972,0.1241-4.6035-0.01-4.9063-0.3125-0.3027-0.3028,0.2391-1.9424,1.2188-3.6562,2.0877-3.6525,1.265-5.6769-3.3125-8.1875-1.6012-0.8782-4.1091-3.7779-5.5625-6.4375-2.9466-5.3921-4.9532-6.97-7.8125-6.0625-2.789,0.8852-3.3011,3.7006-1.5937,8.6562,1.6826,4.8839,1.1942,5.7835-3.5313,6.75-4.3726,0.8943-4.746,2.7425-1,4.875,3.7163,2.1155,3.5195,3.3706-0.7187,4.4688-4.169,1.0803-4.0206,2.729,0.5624,5.7188l3.75,2.4375-6.25,1.125c-7.2983,1.3326-8.1126,1.899-6.4687,4.5312,1.0505,1.6821,0.9802,1.9688-0.6563,1.9688-2.4787,0-3.2753-2.245-2.5-7.0938,0.5596-3.4993,0.4091-3.9062-1.4374-3.9062-3.1451,0-3.7574-2.0616-1.1876-4,2.7102-2.0443,1.9226-4-1.625-4-2.2793,0-2.4698-0.2916-1.875-3,0.5642-2.5686,0.2997-3.1226-1.8437-3.9375-1.7134-0.6514-2.342-1.5438-2.0313-2.7812,0.2859-1.1385-1.0515-3.3972-3.5937-6.1562-3.4469-3.7409-4.2542-4.2054-5.5936-3.0938-0.979,0.8124-1.3563,2.1744-1,3.5938,0.3841,1.5306,0.018,2.579-1.125,3.2188-1.1452,0.6408-1.7317,2.3112-1.8126,5.1875-0.095,3.3641-0.5795,4.4445-2.25,5.0625-1.4159,0.5238-2.5125,0.30775-3.3124-0.65625-0.7078-0.8528-2.9714-1.4375-5.5626-1.4375-6.1129,0-8.375-2.4592-8.375-9.0625,0-2.7773,0.6895-6.3724,1.5314-8,1.1901-2.3014,1.2831-3.4241,0.4063-5.0625-0.9809-1.8328-1.7339-2.0542-5.7813-1.5312-7.9433,1.0264-8.4536-0.46755-2.2814-6.7188,2.9657-3.0035,5.0623-5.925,4.6876-6.5312-0.3732-0.6037-2.4838-1.0938-4.6876-1.0938-7.162,0-9.7109-2.9858-6.3436-7.4375,2.6289-3.4758,1.8586-5.2508-2.5625-5.8438-2.2217-0.29798-4.7139-1.1029-5.5312-1.7812-1.2924-1.0726-1.3106-1.4464-0.063-2.8438,2.9794-3.3358,2.4178-6.9496-1.3124-8.25-2.0167-0.703-3.9083-2.6926-5.9689-6.3438-2.936-5.2024-5.9212-7.3575-8.2189-5.9375-0.7644,0.47249-0.9015,2.7447-0.4686,6.9688l0.625,6.25-3.6875,0.875c-4.768,1.1276-5.1967,2.7112-1.375,4.9688,3.6955,2.183,3.4675,3.5359-0.7811,4.8125-4.1223,1.2386-4.0377,2.874,0.3124,5.5625,4.185,2.5865,3.7271,3.9814-1.3124,4-9.1615,0.0339-10.529,2.428-3.6876,6.4375,2.4749,1.4504,4.5,3.067,4.5,3.5938s-2.22,0.96875-4.9374,0.96875c-2.7479,0-5.2776,0.5243-5.6876,1.1875-0.4599,0.744,1.4897,3.1907,5.1876,6.5l5.9374,5.3125h-5.2812c-6.4799,0.002-7.2748,1.352-3.7812,6.5,4.6732,6.8865,3.2935,9.0114-6.4376,9.875-3.575,0.3172-7.5125,0.86835-8.75,1.2188-1.9223,0.5444-2.25,0.2356-2.25-2,0-3.289-1.3953-3.305-4.1874-0.0937-2.8514,3.2793-4.2987,3.1547-5.8126-0.5-1.473-3.5563-2.7939-3.741-6.4374-0.875-1.4902,1.1722-4.7893,2.3682-7.3438,2.6562l-4.6562,0.53125,2.7187-3.25c1.4991-1.7817,4.6349-4.8406,6.9687-6.7812,4.8912-4.0669,6.1252-5.8574,5.375-7.8125-0.4248-1.1068-2.2492-1.2532-8.9374-0.78125-8.8958,0.6278-13.688-0.0359-13.688-1.8438,0-0.5999,2.2834-3.5528,5.0625-6.5938,3.8172-4.1768,4.979-6.1834,4.75-8.1562-0.2754-2.3735-0.8068-2.6662-5.6875-3.1562-4-0.4015-5.8497-1.1144-7.25-2.8438-2.3659-2.9216-2.4267-8.864-0.1562-13.625,2.5216-5.2879,1.0233-7.0721-5.5938-6.6562-7.2998,0.45876-7.7811-1.5955-1.75-7.7188,4.8967-4.9716,5.007-6.0938,0.5938-6.0938-4.2654,0-8.9727-2.0489-8.9688-3.875,0-0.90869,0.9021-3.1055,2-4.9062,2.8249-4.6332,2.5609-5.2188-2.375-5.2188-5.8455,0-7.6504-2.0424-5.3125-6,2.0777-3.5172,1.3741-5.5789-2.3439-6.875-1.7394-0.60637-3.6473-2.4856-4.875-4.8125zm154.03,117.44c0.5306-0.0882,0.9695,0.10369,1.4688,0.46875,1.6962,1.2403,1.6602,1.3754-0.4062,2.0312-2.7219,0.8639-2.7449,1.7228-0.125,4.0938l2.0624,1.875-2.125,0.78125c-1.4669,0.5427-2.0298,1.4696-1.8124,3.0312,0.2882,2.0714-0.1016,2.2868-4.6876,2.4062-5.193,0.1353-7.5-0.31425-7.5-1.4688,0.0001-0.3712,2.8908-3.7004,6.4063-7.375,3.9109-4.0879,5.5516-5.6497,6.7187-5.8438z"/>
  <path id="path3133-3" d="m172.97,816.97-2,3.8125c-1.2277,2.3269-3.1356,4.2061-4.875,4.8125-3.7179,1.2961-4.4214,3.389-2.3438,6.9062,2.3378,3.9576,0.533,5.9688-5.3125,5.9688-4.9361,0-5.1999,0.58558-2.375,5.2188,1.0979,1.8008,1.9979,4.0288,2,4.9375,0,1.8261-4.7034,3.8438-8.9688,3.8438-4.4133,0-4.3032,1.1221,0.59375,6.0938,6.0311,6.1232,5.581,8.1775-1.7188,7.7188-6.6171-0.41584-8.1466,1.3684-5.625,6.6562,2.2704,4.761,2.2096,10.703-0.15625,13.625-1.4003,1.7293-3.2501,2.4735-7.25,2.875-4.8808,0.49-5.3808,0.7515-5.6562,3.125-0.229,1.9728,0.9326,3.9794,4.75,8.1562,2.7792,3.0409,5.0312,6.0251,5.0312,6.625,0,1.8078-4.7606,2.4403-13.656,1.8125-6.6882-0.472-8.544-0.32555-8.9688,0.78125-0.7503,1.9551,0.4839,3.7456,5.375,7.8125,2.3339,1.9406,5.4696,4.9996,6.9688,6.7812l2.7188,3.25-4.625-0.53125c-2.5545-0.288-5.8848-1.484-7.375-2.6562-3.6435-2.866-4.9644-2.6813-6.4375,0.875-1.5138,3.6547-2.9612,3.7793-5.8125,0.5-2.7922-3.2113-4.1875-3.1952-4.1875,0.0937,0,2.2356-0.3276,2.5444-2.25,2-1.2375-0.3504-5.175-0.90155-8.75-1.2188-9.7311-0.8636-11.111-2.9885-6.4375-9.875,3.4935-5.148,2.6986-6.4978-3.7812-6.5h-5.2812l5.9375-5.3125c3.6978-3.3093,5.6473-5.756,5.1875-6.5-0.41-0.6632-2.9397-1.1875-5.6875-1.1875-2.7175,0-4.9375-0.44195-4.9375-0.96875s2.025-2.1434,4.5-3.5938c6.8417-4.0095,5.474-6.4036-3.6875-6.4375-5.0395-0.0186-5.4975-1.4135-1.3125-4,4.35-2.6885,4.4346-4.3239,0.3125-5.5625-4.2487-1.2766-4.4454-2.6295-0.75-4.8125,3.8217-2.2575,3.3618-3.8412-1.4062-4.9688l-3.685-0.87,0.657-6.25c0.4327-4.2241,0.2645-6.4963-0.5-6.9688-2.2976-1.42-5.2828,0.73514-8.2188,5.9375-2.0606,3.6512-3.9208,5.672-5.9375,6.375-3.7303,1.3004-4.3232,4.8829-1.3438,8.2188,1.248,1.3973,1.2299,1.7711-0.0625,2.8438-0.8173,0.67831-3.3098,1.4833-5.5312,1.7812-4.4211,0.59299-5.1915,2.3679-2.5625,5.8438,3.367,4.4517,0.81825,7.4375-6.3438,7.4375-2.2037,0-4.3144,0.49005-4.6875,1.0938-0.3747,0.6063,1.7219,3.5278,4.6875,6.5312,6.1722,6.2512,5.662,7.7764-2.2812,6.75-4.0474-0.523-4.8004-0.3328-5.7812,1.5-0.8768,1.6384-0.78385,2.7611,0.40625,5.0625,0.8417,1.6276,1.5312,5.2227,1.5312,8,0,6.6033-2.2621,9.0625-8.375,9.0625-2.5911,0-4.8548,0.5847-5.5625,1.4375-0.8001,0.964-1.8966,1.18-3.3125,0.65625-1.6705-0.618-2.1553-1.6672-2.25-5.0312-0.081-2.8763-0.6674-4.578-1.8125-5.2188-1.1433-0.6398-1.5092-1.6882-1.125-3.2188,0.3562-1.4194-0.0207-2.7814-1-3.5938-1.3396-1.1117-2.1468-0.64715-5.5938,3.0938-2.5422,2.759-3.8484,5.049-3.5625,6.1875,0.3108,1.2374-0.3491,2.0986-2.0625,2.75-2.1433,0.8149-2.408,1.3689-1.8438,3.9375,0.59484,2.7084,0.43555,3-1.8438,3-3.5475,0-4.3664,1.9557-1.6562,4,2.5698,1.9384,1.9576,4-1.1875,4-1.8465,0-1.9971,0.40695-1.4375,3.9062,0.7753,4.8487,0.00805,7.0938-2.4688,7.0938-1.6364,0-1.7379-0.28665-0.6875-1.9688,1.6439-2.6322,0.82965-3.1986-6.4688-4.5312l-6.25-1.125,3.75-2.4375c4.583-2.9897,4.7315-4.6384,0.5625-5.7188-4.2383-1.0982-4.435-2.3532-0.71875-4.4688,3.746-2.1325,3.3726-3.9807-1-4.875-4.7255-0.9665-5.214-1.8661-3.5312-6.75,1.7074-4.9556,1.1952-7.7398-1.5938-8.625-2.8594-0.9075-4.8659,0.63915-7.8125,6.0312-1.4534,2.6596-3.9613,5.5593-5.5625,6.4375-4.5775,2.5106-5.4002,4.535-3.3125,8.1875,0.9797,1.7139,1.5527,3.3534,1.25,3.6562-0.3028,0.3027-2.509,0.4366-4.9062,0.3125-5.4885-0.2841-6.4308,1.549-3.4375,6.75,2.8995,5.0379,2.0104,7.125-3.0625,7.125-7.24,0-8.3824,1.3076-5.6562,6.5625,1.0607,2.0444,1.1611,3.1778,0.375,4.125-0.8153,0.9824-0.67425,1.3125,0.59375,1.3125,0.9248,0,1.455,0.3916,1.1562,0.875s-2.5789,0.6549-5.0625,0.375l-4.5312-0.5v3.2188c0,2.5409-0.3208,3.1014-1.5625,2.625-0.8699-0.3339-2.7824-0.6441-4.25-0.6875-1.4675-0.043-2.125-0.2851-1.4375-0.5625s1.25-1.8333,1.25-3.4375c0-1.6041,0.52935-2.9062,1.1562-2.9062,0.6269,0-0.46645-1.5144-2.4062-3.3438-2.6506-2.4999-3.3013-3.729-2.625-4.9375,0.6521-1.1651,0.33775-1.9848-1.1562-3.0312-1.363-0.9547-2.1517-2.7364-2.3125-5.25-0.1338-2.0912-0.7733-3.9974-1.4375-4.2188-0.6643-0.2214-1.2188-1.9333-1.2188-3.8125,0-2.7271-0.40395-3.4062-1.9688-3.4062-1.0784,0-2.4128,0.5625-2.9688,1.25-0.5561,0.6875-2.1034,2.4994-3.4375,4.0312-1.4103,1.6193-2.2186,3.5501-1.9375,4.625,0.9351,3.5762-9.7565,6.7272-13.688,4.0312-1.2722-0.8725-1.1187-1.3031,1-2.75,3.9197-2.6769,7-6.3118,7-8.2812,0-1.4605-0.96154-1.88-5.0938-2.125l-5.0938-0.28125,4.5938-3.4375c2.5288-1.8897,4.5938-3.7904,4.5938-4.2188,0-1.4054-3.9916-2.964-8.0312-3.125-4.7567-0.1897-5.0226-1.1213-0.90625-3.25,3.8769-2.0048,3.5119-4.5669-0.8125-5.6875-4.0441-1.0479-4.1173-2.2814-0.25-4.2812,4.6748-2.4174,3.5098-5.5-2.0938-5.5-2.7426,0-3.3562-2.3526-1.9062-7.5312,1.4943-5.3372,0.20855-7.7596-3.9062-7.2812-1.9364,0.2251-3.2579,1.5561-5.25,5.25-1.7435,3.233-3.8106,5.4704-6,6.5-2.6726,1.2568-3.398,2.2376-3.6562,4.9375-0.1776,1.8559,0.1599,3.8474,0.75,4.4375,2.351,2.3511,1.0962,3.6875-3.4688,3.6875-5.7136,0-6.6192,1.8461-3.625,7.3125,2.7767,5.0692,1.714,6.4763-5.1562,6.875-6.805,0.395-7.0902,2.2791-1.2188,7.875,6.1082,5.8215,5.9968,7.34-0.46875,6.7188-6.3719-0.6123-8.5594,0.776-7.5625,4.8125,1.7413,7.0505,1.6942,9.0898-0.1875,12.469-1.6845,3.0248-2.4622,3.4574-6.4062,3.7188-3.9775,0.2635-4.5964,0.01-5.625-2.25-1.6045-3.5215-6.5189-3.532-8.8125-0.0312-0.9894,1.51-2.5595,2.5-4,2.5-2.1158,0-2.4062,0.4515-2.4062,4,0,2.7524-0.4165,4-1.375,4-1.6123,0-2.625,2.1104-2.625,5.5625,0,1.7182-0.54165,2.4375-1.9062,2.4375-1.3659,0-2.1286,0.9385-2.5938,3.25-1.1574,5.7507-1.6025,6.75-3.0625,6.75-0.7879,0-1.4375,0.675-1.4375,1.5s-0.675,1.5-1.5,1.5c-0.9333,0-1.5,0.9444-1.5,2.5,0,2,0.5,2.5,2.5,2.5,1.5556,0,2.5-0.5667,2.5-1.5,0-0.825,0.50345-1.5,1.0938-1.5,2.4884,0,0.20485,3.5203-2.5938,4-2.5417,0.4356-3.0367,1.0213-3.3125,3.9062-0.3772,3.9458-2.1692,6.0937-5.0938,6.0938-1.635,0-2.0938,0.6322-2.0938,3,0,1.6499-0.45,2.9999-1,3-0.55,0-1.0352,1.4624-1.0938,3.25l-0.125,3.25-1.0625-2.75c-1.2587-3.1856-5.3364-3.8756-5.9062-1-0.2082,1.0507-0.62715,1.3287-1.0312,0.6874-0.3702-0.5874,0.43575-2.2675,1.7812-3.7187,2.7307-2.9448,3.2538-6.7187,0.9375-6.7187-1.0828,0-1.5-1.1187-1.5-4,0-2.9086-0.5426-4.34-2-5.25-1.5449-0.9648-2-2.3235-2-6,0-4.2854-0.23155-4.75-2.2812-4.75-2.0527,0-2.2189-0.3931-1.875-4l0.375-4h-4.0938c-3.5212,0-4.2859,0.4104-5.625,3-0.8532,1.65-2.1828,3-2.9688,3-0.8415,0-1.707,1.4391-2.0938,3.5-0.4751,2.5328-1.1644,3.5-2.5312,3.5-1.4918,0-1.9062,0.7354-1.9062,3.5,0,2.7631-0.3856,3.4999-1.875,3.5-2.3084,0-3.3772,3.8962-3.4688,12.75-0.055,5.323-0.31385,6.2499-1.8438,6.25-0.988,0-1.8125-0.45-1.8125-1,0-0.5499-1.2025-1-2.6875-1-2.1,0-2.4333,0.254-1.5,1.1874,1.4509,1.4511,1.5884,5.8127,0.1875,5.8127-0.55,0-1,0.9-1,2,0,1.7777-0.6666,2-6,2-5.0355,0-6.0046-0.2814-6.0312-1.75-0.017-0.9626-0.67895-2.6127-1.4688-3.6564-0.7899-1.0435-1.1962-2.2809-0.90625-2.75,0.2898-0.4688,0.0809-0.8437-0.46875-0.8437-0.5493,0-1.1418-1.6876-1.3125-3.75-0.2937-3.5488-0.5031-3.7682-4.0625-4.0626-3.2971-0.2726-3.9762,0.072-5.5,2.75-0.9562,1.6803-2.2849,3.0593-2.9375,3.0626-0.6527,0-1.3277,1.4625-1.5,3.25-0.2956,3.0652-0.54415,3.2674-4.6562,3.5625-3.3174,0.2382-4.4895,0.7763-4.875,2.25-0.4286,1.6394-1.4276,1.9376-6.4062,1.9376-5.1483,0-5.875-0.2464-5.875-1.9376,0-1.0733-0.9183-2.2306-2.0625-2.5938-1.6803-0.5333-1.928-1.1866-1.4062-3.5625,0.3622-1.6486,0.20285-2.9062-0.34375-2.9062-0.5312,0-1.2648-2.1375-1.6562-4.75-0.3913-2.6124-1.1678-5.0336-1.7188-5.375-0.551-0.3415-1.3104-2.1414-1.6875-4-0.6125-3.019-1.0672-3.4127-4.3438-3.6875-3.2432-0.272-3.9376,0.10305-5.9688,3.2187-2.1196,3.2513-2.6021,3.4854-6.0625,2.9375-3.5326-0.5592-3.75-0.4443-3.75,2.0313,0,1.961,0.5074,2.625,2,2.625,1.1,0,2,0.4499,2,1,0,0.5499-1.125,1-2.5,1-2.024,0-2.5-0.4939-2.5-2.5938,0-1.7526-0.6485-2.7716-2-3.125-1.215-0.3176-2-1.3544-2-2.6562,0-1.1785-0.9-2.7193-2-3.4063-1.1-0.6869-2-1.8984-2-2.7187,0-1.069-1.1215-1.5-3.9375-1.5h-3.9062l-1.2188,5.75c-0.6688,3.1625-1.2382,6.3124-1.25,7-0.012,0.6874-0.83545,1.25-1.8438,1.25-1.43,0-1.8438,0.7595-1.8438,3.5,0,1.9325,0.5625,4.4341,1.25,5.5624,1.0818,1.7754,0.94925,2.3257-1.0938,4-3.4354,2.8159-4.2219,2.3845-2.625-1.4374,0.7751-1.8552,1.1261-3.624,0.8125-3.9376-0.3136-0.3137-0.73885-5.2078-0.96875-10.875-0.445-10.969-1.8754-15.203-6.9062-20.625-1.3727-1.4794-2.7129-3.4406-3-4.3438-0.2872-0.9031-1.4182-1.8734-2.5-2.1562-2.0051-0.5243-2.7862-2.6875-0.96875-2.6875,0.55,0,1-1.125,1-2.5,0-1.9799-0.48445-2.5-2.4062-2.5-1.4664,0-2.6238,0.6925-2.9062,1.75-0.3957,1.482-0.5755,1.4055-1.1875-0.5-0.3975-1.2375-1.3642-2.25-2.125-2.25-0.8089,0-1.375-1.0382-1.375-2.5,0-2.1895-0.4415-2.5-3.5-2.5-2.6102,0-4.1512,0.75345-6.125,2.9688-2.1476,2.4103-2.9862,2.7643-4.5312,1.9375-2.0249-1.0837-8.8438,0.72595-8.8438,2.3438,0,0.4618,0.98215,2.1306,2.1562,3.7188,2.9918,4.0466,1.883,6.2398-2.9062,5.8438-3.324-0.2749-3.7402-0.61553-3.7812-3-0.029-1.7017-1.0433-3.5012-2.75-4.8438-2.1208-1.6682-2.7188-2.9726-2.7188-6.0625v-3.9375l-3.9688,0.625c-4.6115,0.7374-6.0663-1.0328-4.1875-5.1562,0.9662-2.1205,0.79915-2.6488-1.4062-4.0938-1.3896-0.9105-3.1846-2.89-3.9688-4.4062-1.9302-3.7326-4.413-6.0928-5.625-5.3438-0.5966,0.3688-0.7112,2.5698-0.3125,5.4688,0.6354,4.6201,0.5275,4.8813-1.9375,5.5-2.89,0.7253-3.1778,1.4119-1.3438,3.3125,1.0063,1.0428,0.8113,1.6148-1,2.8438-1.2375,0.8396-2.25,2.5505-2.25,3.8125,0,1.3454-1.1224,3.1184-2.7188,4.2812-2.5385,1.8492-2.6404,2.1708-1.3438,4.5938,0.7649,1.4293,1.23,2.7328,1,2.9062-0.23,0.1735-1.6878,1.2478-3.2188,2.4062-1.6022,1.2124-2.3449,2.3823-1.75,2.75,1.639,1.0129,1.2118,4.0402-0.96875,6.8125-1.6239,2.0644-1.8148,3.0446-1,5.1875,1.3816,3.634,1.5362,3.4074-3.4062,5.5936-4.2147,1.8646-4.4092,2.0943-3.5938,4.9376,0.865,3.0162,0.19305,6.9211-1.9062,10.844-1.2065,2.2545-6.0938,3.0559-6.0938,1,0-0.6269-0.707-1.6557-1.5625-2.2813-0.8556-0.6255-1.6431-2.7985-1.75-4.8437-0.1152-2.2012-0.6974-3.716-1.4375-3.7187-0.6875,0-1.25-1.0951-1.25-2.4376,0-1.3424-0.4751-2.7618-1.0625-3.125-0.5875-0.3631-0.8419-1.2403-0.5625-1.9687,0.6502-1.6942-1.2009-8.4687-2.3125-8.4687-0.4629,0-1.1462,1.6664-1.5312,3.7188-1.0828,5.7712-2.2501,7.2554-5.8125,7.4062-2.3515,0.1-2.6146,0.2454-0.96875,0.5624,1.2375,0.2384,2.25,0.8634,2.25,1.375,0,0.5118,1.9688,0.9375,4.375,0.9376,4.1,0,4.4143,0.1963,5,3.125,0.3438,1.7187,0.625,4.2114,0.625,5.5312,0,1.6462,0.79875,2.6852,2.5312,3.3438,3.2611,1.2399,4.2887,3.9179,2.125,5.5-0.9144,0.6686-1.6562,1.9419-1.6562,2.8437,0,2.5923-10.334,2.3225-13-0.3436-1.1-1.1-2.675-2-3.5-2s-1.5-0.8177-1.5-1.8127c0-0.9949-0.63375-2.6621-1.4062-3.7187-1.3468-1.8419-1.5368-1.7949-4.8125,1.7813-1.9419,2.12-4.3552,3.7501-5.5938,3.7501-1.5123,0-2.1875,0.6119-2.1875,2,0,1.7777-0.6666,2-6,2h-6l-0.0312-4.7501c-0.017-2.6124-0.685-5.641-1.5-6.7188-1.3657-1.8062-1.4616-1.5714-1.2188,3l0.25,4.9689-4.0625,0.2811c-5.5363,0.4067-9.4375-1.1929-9.4375-3.875,0-1.3739,0.47755-1.9574,1.3438-1.625,0.9843,0.3777,1.2136-0.1905,0.84375-2.125-0.6757-3.5348-2.7805-5.6627-3.5625-3.625-0.3111,0.8108-1.466,1.4687-2.5938,1.4688-1.6629,0-1.9554-0.4674-1.4688-2.4063,0.7742-3.0845-1.5212-4.6853-3-2.0937-0.584,1.0235-2.0383,2.8252-3.25,4-1.5136,1.4672-2.0271,2.8374-1.625,4.375,0.4525,1.7305,0.0865,2.3649-1.625,2.8124-1.644,0.4299-2.0878,1.1256-1.6875,2.6563,0.672,2.57-2.3972,14.281-5.0938,14.281-168.95,52.431-235.05,100.22-234.06,140.56h956.75l1-191.94-0.0625-170.75zm-154.31,117.44c1.194-0.048,2.7648,1.3842,7.0312,5.8438,3.5155,3.6746,6.375,7.0038,6.375,7.375,0,1.1545-2.3069,1.604-7.5,1.4688-4.5859-0.1195-4.9757-0.33485-4.6875-2.4062,0.2173-1.5616-0.3455-2.4886-1.8125-3.0312l-0.097-4.59,2.031-1.88c2.6198-2.3709,2.5969-3.2298-0.125-4.0938-2.0664-0.6558-2.0712-0.7597-0.375-2,0.3994-0.29205,0.75826-0.484,1.1562-0.5zm79.875,0.28125c0.62355-0.0607,1.1068,0.0131,1.3438,0.25,0.9469,0.9468-2.7799,3.5312-5.0938,3.5312-1.0407,0-1.6864-0.5344-1.4688-1.1875,0.36398-1.0921,3.3481-2.4116,5.2188-2.5938zm-0.9375,10.781c0.1166,0-0.01545,1.125-0.28125,2.5-0.3782,1.9781-1.0935,2.5-3.375,2.5-1.807,0-2.875-0.52755-2.875-1.4062,0-1.0481,4.6346-3.5938,6.5312-3.5938zm-111.79,5.28c1.0647-0.0124,1.5027,0.727,0.8125,1.8438-0.8304,1.3436-2.252,1.3735-3.0625,0.0625-0.3423-0.5539,0.1164-1.286,1-1.625,0.47865-0.1837,0.8951-0.2771,1.25-0.28125zm-341.25,3.9062c-1.5555,0-2.5,0.5666-2.5,1.5,0,0.825-0.675,1.5-1.5,1.5-0.9333,0-1.5,0.9444-1.5,2.5,0,2,0.5,2.5,2.5,2.5,1.5556,0,2.5-0.5667,2.5-1.5,0-0.825,0.675-1.5,1.5-1.5,0.9334,0,1.5-0.9445,1.5-2.5,0-2-0.5-2.5-2.5-2.5zm22,0c-0.825,0-1.5,0.675-1.5,1.5s0.675,1.5,1.5,1.5,1.5-0.675,1.5-1.5-0.675-1.5-1.5-1.5zm-60,2.8438c-0.0547,0.0314-0.12462,0.16562-0.1875,0.40625-0.2515,0.9625-0.2515,2.5375,0,3.5s0.46875,0.175,0.46875-1.75c0-1.4438-0.11727-2.2506-0.28125-2.1562zm-100.44,7.2188c-0.25825,0.0317-0.4302,0.584-0.71875,1.6875-0.3215,1.2293-1.0954,2.2415-1.7188,2.25-0.8436,0.011-0.8434,0.2031,0,0.75,0.6239,0.4041,1.3814,1.65,1.6562,2.75s0.52995,1.3442,0.59375,0.5625c0.064-0.7817,0.7795-2.1317,1.5625-3,1.2322-1.3664,1.2286-1.8444-0.0312-3.5625-0.71875-0.9801-1.0855-1.4692-1.3438-1.4375zm58.438,1.9375c0.89,0,1.34,0.45,1,1-0.3399,0.55-0.7899,1-1,1-0.21,0-0.66-0.45-1-1-0.3399-0.55,0.1101-1,1-1zm372.81,6.3438c0.1611-0.0648,0.42094,0.29557,0.8125,0.96875,0.5793,0.9959,0.8038,2.4584,0.5,3.25-0.9243,2.4088-1.6258,1.6158-1.5938-1.8125,0.01462-1.5535,0.07412-2.3229,0.28125-2.4062zm-437.66,1c-0.091,0.0138-0.22405,0.16957-0.34375,0.46875-0.2888,0.7218-0.23855,1.574,0.0937,1.9062,0.3323,0.3323,0.57475-0.2583,0.53125-1.3125-0.03-0.72806-0.12967-1.0855-0.28125-1.0625zm3.8438,2.6562c-2,0-2.5,0.5-2.5,2.5s0.5,2.5,2.5,2.5,2.5-0.5,2.5-2.5-0.5-2.5-2.5-2.5zm5.9062,2.375c-0.11953-0.005-0.26875,0.04-0.40625,0.125-0.55,0.3399-1,1.045-1,1.5625s0.45,0.9375,1,0.9375,1-0.7051,1-1.5625c0-0.64312-0.23516-1.0466-0.59375-1.0625zm-11.84,4.41c-0.0777-0.0419-0.1549,0.10387-0.25,0.46875-0.2535,0.973-0.24255,2.323,0.0312,3,0.274,0.677,0.48915-0.1,0.46875-1.75-0.0125-1.0312-0.12056-1.649-0.25-1.7188zm10.875,1.2188c-1.7886,0-2.4375,0.53015-2.4375,2.0312,0,2.4175,4.604,7.3872,5.5,5.9375,0.3371-0.5454,0.0915-0.96875-0.5625-0.96875-0.8013,0-1.0075-1.1428-0.625-3.5,0.519-3.198,0.3518-3.5-1.875-3.5zm-18.375,7.125c-1.6044,0.0663-1.8704,0.3993-1.2812,1.125,0.5581,0.6875,1.2296,2.15,1.5,3.25,0.3827,1.5568,0.50345,1.4016,0.59375-0.6875,0.092-2.1222,0.7003-2.7642,2.875-3.0938,1.87-0.2833,1.3483-0.4606-1.625-0.5625-0.8461-0.029-1.5277-0.0534-2.0625-0.0312zm22.938,2.875c-0.55,0-1,0.645-1,1.4375,0,0.79255,0.45,1.7224,1,2.0626,0.55,0.3398,1-0.3052,1-1.4376s-0.45-2.0624-1-2.0624zm-22.375,5.375c-0.35859,0-0.625,0.3595-0.625,0.9687,0,0.8124-0.25985,2.1925-0.59375,3.0625-0.3983,1.038-0.054,1.5938,1,1.5938,1.0371,0,1.5938-0.8623,1.5938-2.4376,0-1.3425-0.45-2.7225-1-3.0624-0.1375-0.085-0.25547-0.1262-0.375-0.125zm-2.25,7.0312c-0.13077-0.014-0.27922,0.027-0.4375,0.125-0.5931,0.3665-2.2317,0.9711-3.625,1.3438-1.9914,0.5326-2.2266,0.8921-1.1562,1.6874,0.7489,0.5565,2.3562,0.8577,3.5938,0.6563,1.4567-0.237,2.25-1.0558,2.25-2.3437,0-0.876-0.2327-1.4255-0.625-1.4688z" fill="#b9ebe2"/>
 </g>
</svg>
